<?xml version="1.0" encoding="UTF-8" standalone="no"?>
<!-- Created with Inkscape (http://www.inkscape.org/) -->

<svg
   width="1080"
   height="1080"
   viewBox="0 0 1080 1080"
   version="1.1"
   id="svg1"
   xml:space="preserve"
   sodipodi:docname="logo-dragon.svg"
   inkscape:version="1.3.2 (091e20ef0f, 2023-11-25, custom)"
   xmlns:inkscape="http://www.inkscape.org/namespaces/inkscape"
   xmlns:sodipodi="http://sodipodi.sourceforge.net/DTD/sodipodi-0.dtd"
   xmlns:xlink="http://www.w3.org/1999/xlink"
   xmlns="http://www.w3.org/2000/svg"
   xmlns:svg="http://www.w3.org/2000/svg"><sodipodi:namedview
     id="namedview1"
     pagecolor="#505050"
     bordercolor="#eeeeee"
     borderopacity="1"
     inkscape:showpageshadow="0"
     inkscape:pageopacity="0"
     inkscape:pagecheckerboard="0"
     inkscape:deskcolor="#505050"
     inkscape:zoom="0.75185185"
     inkscape:cx="540"
     inkscape:cy="540"
     inkscape:window-width="1920"
     inkscape:window-height="1056"
     inkscape:window-x="1920"
     inkscape:window-y="0"
     inkscape:window-maximized="1"
     inkscape:current-layer="svg1" /><defs
     id="defs1" /><g
     id="layer2"
     style="display:inline"><g
       id="g23"
       transform="matrix(1.1097414,0,0,1.1097417,-67.107399,-38.224255)"><path
         style="display:inline;fill:#a3b59e;fill-opacity:1;stroke:#000000;stroke-width:1.2;stroke-linecap:round;stroke-dasharray:none;stroke-opacity:1"
         d="m 415.19518,896.43904 c 12.67452,-9.70546 18.50556,-40.53184 25.18119,-62.32295 4.59316,10.29941 5.73966,30.8001 21.61804,29.39081 -0.56223,10.03953 1.04781,31.80392 15.05975,33.0343 l -14.81685,72.62688 -75.54167,0.2429 c 1.71621,-15.68237 -14.32933,-21.74379 -27.44762,-29.39081 9.8705,-14.73858 -3.70824,-27.79362 -17.24585,-37.40649 26.35774,2.49071 60.51848,3.53081 73.19301,-6.17464 z"
         id="path29" /><path
         style="fill:#7b7e7b;fill-opacity:1;fill-rule:nonzero;stroke:#000000;stroke-width:1.2;stroke-linecap:round;stroke-dasharray:none;stroke-opacity:1"
         d="m 464.65712,970.38394 c 0.23147,-1.14976 0.72586,-3.43091 1.38882,-6.89857 2.01664,-10.54815 10.17419,-56.60106 11.60224,-64.0706 0.30335,-1.58665 0.48319,-2.40012 0.57983,-2.88014 a 1.1973949,1.1973949 90 0 0 -2.34768,-0.47264 c -0.0966,0.48002 -0.24558,1.29971 -0.57983,2.88014 -1.57359,7.44024 -11.87204,53.06215 -14.09418,63.56893 -0.73052,3.45406 -1.15735,5.7488 -1.38882,6.89856 a 2.4683629,2.4683629 90 0 0 4.83962,0.97432 z"
         id="path16" /><path
         style="fill:#7b7e7b;fill-opacity:1;fill-rule:nonzero;stroke:#000000;stroke-width:1.2;stroke-linecap:round;stroke-dasharray:none;stroke-opacity:1"
         d="m 464.70531,969.85459 c -0.0225,-1.31745 -0.0329,-3.93963 -0.13512,-7.90473 -0.31101,-12.06106 -2.30059,-64.56537 -2.52083,-73.10627 -0.0468,-1.81426 -0.047,-2.75018 -0.0564,-3.30022 a 1.1973949,1.1973949 90 0 0 -2.39444,0.0409 c 0.009,0.55003 0.0412,1.48541 0.0564,3.30021 0.0718,8.54344 -0.12213,61.08507 -0.0207,73.14971 0.0333,3.96629 0.11261,6.58728 0.13513,7.90474 a 2.4683629,2.4683629 90 0 0 4.936,-0.0844 z"
         id="path21"
         transform="rotate(13.534925,552.61749,880.53898)" /><path
         style="fill:#7b7e7b;fill-opacity:1;fill-rule:nonzero;stroke:#000000;stroke-width:1.2;stroke-linecap:round;stroke-dasharray:none;stroke-opacity:1"
         d="m 464.70498,969.95526 c 0.038,-1.60132 0.1479,-4.78685 0.22768,-9.60791 0.24264,-14.66434 0.66382,-78.53001 0.83564,-88.91441 0.0365,-2.20591 0.0792,-3.34274 0.0951,-4.01128 a 1.1973957,1.1973957 90 0 0 -2.39412,-0.0567 c -0.0158,0.66855 -0.027,1.80612 -0.0951,4.01129 -0.32024,10.38088 -2.92465,74.19482 -3.37687,88.85419 -0.14868,4.81942 -0.18973,8.00659 -0.22768,9.6079 a 2.4683629,2.4683629 90 0 0 4.93534,0.11696 z"
         id="path18"
         transform="translate(-23.804128,-32.791401)" /><path
         style="fill:#7b7e7b;fill-opacity:1;fill-rule:nonzero;stroke:#000000;stroke-width:1.2;stroke-linecap:round;stroke-dasharray:none;stroke-opacity:1"
         d="m 464.65712,970.38394 c 0.23147,-1.14976 0.72586,-3.43091 1.38882,-6.89857 2.01664,-10.54815 10.17419,-56.60106 11.60224,-64.0706 0.30335,-1.58665 0.48319,-2.40012 0.57983,-2.88014 a 1.1973949,1.1973949 90 0 0 -2.34768,-0.47264 c -0.0966,0.48002 -0.24558,1.29971 -0.57983,2.88014 -1.57359,7.44024 -11.87204,53.06215 -14.09418,63.56893 -0.73052,3.45406 -1.15735,5.7488 -1.38882,6.89856 a 2.4683629,2.4683629 90 0 0 4.83962,0.97432 z"
         id="path24"
         transform="rotate(-101.34995,461.93229,969.77364)" /><path
         style="fill:#7b7e7b;fill-opacity:1;fill-rule:nonzero;stroke:#000000;stroke-width:1.2;stroke-linecap:round;stroke-dasharray:none;stroke-opacity:1"
         d="m 464.70531,969.85459 c -0.0225,-1.31745 -0.0329,-3.93963 -0.13512,-7.90473 -0.31101,-12.06106 -2.30059,-64.56537 -2.52083,-73.10627 -0.0468,-1.81426 -0.047,-2.75018 -0.0564,-3.30022 a 1.1973949,1.1973949 90 0 0 -2.39444,0.0409 c 0.009,0.55003 0.0412,1.48541 0.0564,3.30021 0.0718,8.54344 -0.12213,61.08507 -0.0207,73.14971 0.0333,3.96629 0.11261,6.58728 0.13513,7.90474 a 2.4683629,2.4683629 90 0 0 4.936,-0.0844 z"
         id="path25"
         transform="rotate(-85.256323,439.93114,968.05308)" /><path
         style="fill:#7b7e7b;fill-opacity:1;fill-rule:nonzero;stroke:#000000;stroke-width:1.2;stroke-linecap:round;stroke-dasharray:none;stroke-opacity:1"
         d="m 464.70498,969.95526 c 0.038,-1.60132 0.1479,-4.78685 0.22768,-9.60791 0.24264,-14.66434 0.66382,-78.53001 0.83564,-88.91441 0.0365,-2.20591 0.0792,-3.34274 0.0951,-4.01128 a 1.1973957,1.1973957 90 0 0 -2.39412,-0.0567 c -0.0158,0.66855 -0.027,1.80612 -0.0951,4.01129 -0.32024,10.38088 -2.92465,74.19482 -3.37687,88.85419 -0.14868,4.81942 -0.18973,8.00659 -0.22768,9.6079 a 2.4683629,2.4683629 90 0 0 4.93534,0.11696 z"
         id="path27"
         transform="rotate(-71.788949,427.69367,969.9186)" /></g><use
       x="0"
       y="0"
       xlink:href="#g1"
       id="use1"
       transform="matrix(-1,0,0,1,1080,1.6044929)" /><g
       id="g1"
       transform="matrix(1.1097414,0,0,1.1097417,-67.107399,-38.224255)"><path
         id="path14"
         style="display:inline;fill:#a3b59e;fill-opacity:1;stroke:#000000;stroke-width:1.2;stroke-linecap:round;stroke-dasharray:none;stroke-opacity:1"
         d="m 678.17476,275.93357 c 50.01509,-57.9842 97.41066,-128.76005 132.78654,-195.893747 55.21883,52.314747 117.75053,98.680557 155.67989,173.471617 20.50848,64.82619 34.37341,130.75965 32.9771,199.23664 5.08261,84.96183 -13.70852,169.92366 -35.72519,254.88549 -62.55915,-10.17939 -80.12674,12.1202 -106.19852,26.26573 v 0 c -3.25607,-34.94802 0.8327,-67.00614 -31.89308,-108.02146 v 0 C 797.58001,601.49801 764.32002,582.99641 692.74871,609.19137 655.53328,584.68419 615.70262,558.54627 540,564.0121 V 346.37436 l 138.17476,-70.44079" /><path
         style="display:inline;fill:#7b7e7b;fill-opacity:1;fill-rule:nonzero;stroke:#000000;stroke-width:2;stroke-linecap:round;stroke-dasharray:none;stroke-opacity:1"
         d="m 672.49297,284.07939 c 1.75883,3.04653 5.4026,9.58347 9.89477,18.18571 6.33107,12.12362 14.47003,27.37096 24.12306,50.63048 9.88631,23.82161 18.0222,48.58662 19.70304,58.27362 0.99767,5.74979 -0.55343,7.6548 0.34351,11.67939 0.0524,0.23506 0.10882,0.4654 0.1691,0.6918 0.25674,4.0325 1.31553,8.08047 1.20494,15.45324 -0.0965,6.43335 -0.73738,16.36754 -2.34393,28.95979 -1.92093,15.05645 -4.96463,31.9454 -9.1694,49.68565 -4.523,19.08286 -9.52861,35.55195 -14.05685,48.81461 -1.24094,3.63455 -2.39199,6.87165 -3.41538,9.68714 -6.01432,16.54619 -11.39969,27.93028 -14.21523,33.7076 a 5.2249552,5.2249552 90 0 0 9.39376,4.57798 c 2.95556,-6.06465 8.33874,-17.71866 14.63084,-34.68328 1.06615,-2.87452 2.25366,-6.18509 3.52502,-9.89775 4.64154,-13.55444 9.67804,-30.35719 14.31101,-49.78777 4.32978,-18.15902 7.48696,-35.15686 9.79305,-50.60859 1.95139,-13.07513 2.96912,-22.78496 3.78263,-29.62779 1.00996,-8.49524 2.53509,-12.69229 2.70317,-17.5321 a 7.7738225,3.1718073 59.82262 0 0 -0.34352,-2.45005 c -0.1492,-0.54347 -0.32609,-1.08944 -0.53961,-1.64573 -1.48342,-3.86501 -3.82443,-4.59859 -6.22466,-9.94744 -4.0572,-9.0414 -11.11106,-34.16068 -19.6231,-58.99161 -8.00661,-23.35648 -15.59651,-41.43451 -21.53893,-53.24737 -4.50058,-8.94663 -8.40708,-15.64317 -10.22299,-18.78859 a 6.8613179,6.8613179 90 0 0 -11.8843,6.86106 z"
         id="path10" /><path
         style="display:inline;fill:#7b7e7b;fill-opacity:1;fill-rule:nonzero;stroke:#000000;stroke-width:2;stroke-linecap:round;stroke-dasharray:none;stroke-opacity:1"
         d="m 806.03485,95.270756 c 1.51734,3.882341 4.65405,12.118284 8.29828,22.764914 5.11527,14.9443 11.46015,34.0873 18.2805,62.25209 3.4504,14.24851 6.45507,28.49991 8.92967,41.42433 2.41708,12.62398 4.31855,23.94535 5.09257,30.31419 1.02027,8.395 0.005,11.21476 1.01374,17.26069 0.13197,0.79117 0.28052,1.54453 0.44383,2.27495 a 0.87191194,0.00902468 77.45199 0 0 0.17927,0.76788 c 1.3736,3.99687 3.50463,6.96063 5.7554,14.89344 1.63044,5.74647 4.00187,15.38741 6.49912,28.74928 2.85222,15.26121 5.54884,33.68135 7.48559,53.68131 1.94914,20.12789 2.83058,38.802 2.76978,54.49271 -0.0565,14.58639 -0.92658,24.97763 -1.89428,30.60581 -1.18705,6.90391 -3.2354,8.08902 -4.03066,12.49359 -0.18406,1.01943 -0.29013,1.97665 -0.34629,2.92112 a 0.01233133,0.44993015 3.9607258 0 0 -0.0554,0.57213 c 0.0313,3.9777 1.04883,7.91207 0.629,14.97491 -0.34478,5.80035 -1.38936,14.88942 -3.61986,26.19399 -2.26552,11.48209 -5.47434,23.88444 -9.71197,37.0578 -8.96906,27.88177 -20.04364,51.30325 -25.27422,62.13559 -2.96501,6.14043 -5.40315,10.72139 -6.34921,12.53732 a 4.846055,4.846055 90 0 0 8.59554,4.47812 c 0.84465,-1.62125 3.46164,-6.76647 6.45103,-12.73842 5.48462,-10.95671 16.8825,-34.64839 26.6382,-63.06629 4.62969,-13.48607 8.22576,-26.04953 11.06381,-37.9093 2.83231,-11.83581 4.39987,-20.80003 5.56527,-27.0271 1.36798,-7.30957 2.95691,-11.28056 3.51269,-15.51958 l -0.0554,0.57213 c 0.19807,-1.01153 0.3379,-2.05495 0.40017,-3.17295 0.26945,-4.83773 -1.44102,-6.47895 -1.70747,-13.74245 -0.21446,-5.84634 -0.0485,-16.76474 -0.37799,-31.45502 -0.36371,-16.21385 -1.24543,-34.60084 -3.0038,-55.24099 -1.73707,-20.39005 -3.97917,-38.82476 -6.30101,-54.57756 -2.0297,-13.77081 -3.83369,-23.58251 -4.92889,-29.75494 -1.48731,-8.38238 -1.24201,-12.16691 -2.26968,-16.56887 l 0.17926,0.76785 c -0.10448,-0.73927 -0.2306,-1.49486 -0.38534,-2.28018 -1.18245,-6.00107 -3.11554,-8.28294 -5.10629,-16.50819 -1.58618,-6.55368 -3.61813,-17.21262 -6.06251,-30.22971 -2.46335,-13.11815 -5.11041,-27.32544 -8.20745,-41.9865 -5.97026,-28.26258 -11.80842,-49.15917 -16.79951,-64.04577 -3.66884,-10.94283 -6.95934,-19.378891 -8.51435,-23.3576 a 6.861312,6.861312 90 0 0 -12.78114,4.995276 z"
         id="path17" /><path
         style="display:inline;fill:#7b7e7b;fill-opacity:1;fill-rule:nonzero;stroke:#000000;stroke-width:2;stroke-linecap:round;stroke-dasharray:none;stroke-opacity:1"
         d="m 809.05674,86.527244 c 1.57959,2.694399 4.26461,7.347241 9.84568,16.155466 2.58898,4.086 6.14105,9.42987 11.34632,17.27123 7.36186,11.0901 17.80625,26.83638 28.4341,44.08864 10.57132,17.16051 20.33176,34.1889 28.63509,50.55796 8.14779,16.06244 13.57764,28.96065 16.0676,36.6507 2.84665,8.79169 1.70641,11.58847 3.59951,17.68058 0.21437,0.68986 0.43793,1.35285 0.6711,1.99855 1.0997,5.43982 3.21398,10.23376 5.04776,19.42242 3.15865,15.82726 9.24101,51.12783 12.49445,85.26151 2.84044,29.80069 3.15689,54.49179 2.03194,69.62755 -0.91477,12.30767 -3.69558,17.10852 -4.26237,25.854 -0.26332,4.06293 -0.0122,7.29293 0.31157,10.94583 l 0.0521,-0.4783 c 0.0992,4.53615 0.30888,9.70351 -0.3637,17.01337 -0.77916,8.46822 -2.64448,22.44723 -5.63075,38.60654 -3.07202,16.62334 -7.22145,35.06225 -13.03008,55.61778 -6.08917,21.54833 -13.28376,42.89631 -21.30905,64.34923 -7.84953,20.98309 -15.50438,39.38902 -20.04058,50.24526 -4.94191,11.82719 -9.15198,21.37407 -10.76338,25.04779 a 4.9394983,4.9394983 90 0 0 9.04696,3.96826 c 1.53881,-3.50824 5.88144,-13.49416 10.82388,-25.18872 4.58722,-10.85404 12.25134,-29.52172 20.06597,-50.6777 8.02672,-21.73019 15.18526,-43.25253 21.40817,-65.12647 5.95177,-20.92084 10.26174,-39.38883 13.80498,-56.25936 3.45875,-16.46829 5.94928,-30.22308 7.75699,-38.73926 1.56879,-7.39058 3.13159,-12.08001 4.5091,-16.59841 a 0.02684487,0.34407422 10.682287 0 0 0.0521,-0.47836 c 0.89411,-3.62593 1.61617,-7.00705 1.83038,-11.1732 0.46614,-9.06629 -1.82571,-14.23396 -2.4948,-26.81211 -1.09937,-20.66711 -1.06887,-35.2894 -4.26253,-70.62902 -3.10974,-34.41109 -8.10938,-70.37892 -9.91495,-86.26927 -1.12002,-9.85707 -0.50022,-15.12857 -1.33991,-20.99971 a 5.2137003,1.2398367 62.263102 0 0 -0.36704,-1.43368 c -0.2906,-0.85794 -0.61528,-1.72457 -0.98537,-2.61114 -2.56303,-6.13986 -5.24136,-7.56304 -9.51517,-15.98162 -3.63135,-7.15305 -9.66138,-20.59207 -17.61987,-36.67786 -8.42004,-17.01869 -17.31986,-33.82232 -27.44449,-51.91967 -9.8006,-17.51817 -19.81533,-34.53955 -26.42037,-45.7044 -4.46887,-7.55398 -8.41359,-14.172921 -10.57985,-17.707355 -5.54691,-9.05026 -8.00109,-13.018935 -9.65333,-15.837245 a 6.861312,6.861312 90 0 0 -11.83824,6.940194 z"
         id="path13" /><path
         style="display:inline;fill:#7b7e7b;fill-opacity:1;fill-rule:nonzero;stroke:#000000;stroke-width:2;stroke-linecap:round;stroke-dasharray:none;stroke-opacity:1"
         d="m 968.76848,709.89549 c 1.42516,-5.24514 4.86059,-18.01919 8.71091,-33.76072 5.21231,-21.30987 13.61365,-60.33181 19.44399,-104.73884 2.87102,-21.86722 4.68992,-41.54862 5.91952,-59.89016 1.1855,-17.68367 1.6539,-32.05084 2.2588,-40.15781 0.7605,-10.19304 2.6403,-12.73427 2.6858,-20.00372 0.01,-1.05166 -0.021,-2.06335 -0.076,-3.05231 l 7e-4,0.0173 c -0.3261,-5.69656 -1.9676,-10.46872 -2.8388,-19.83619 -1.0406,-11.1888 -1.8515,-21.98009 -2.8921,-33.1689 -1.3323,-14.22779 -2.97496,-29.31899 -5.29376,-45.34121 -2.24374,-15.50358 -4.7782,-29.5259 -7.61721,-43.20018 -2.73629,-13.17948 -5.47665,-24.55043 -7.01513,-31.75502 -2.35429,-11.02502 -1.65838,-16.27307 -3.9632,-23.5919 -0.16993,-0.5396 -0.34359,-1.05004 -0.52094,-1.53713 a 7.1954498,2.0622011 79.807815 0 0 -1.12083,-2.2794 c -3.42854,-4.79062 -6.37254,-6.61351 -12.09868,-14.04606 -4.79076,-6.21842 -13.05725,-17.74723 -23.67712,-31.75843 -10.92615,-14.41524 -23.29086,-30.07406 -37.28368,-46.3854 C 889.03071,138.67001 875.2442,123.91865 862.19727,111.00404 849.44306,98.37919 839.09896,89.214098 833.26434,84.288713 826.87376,78.89401 821.99954,75.152622 820.09675,73.668282 a 9.9052939,9.9052939 90 0 0 -12.18498,15.62004 c 1.6661,1.299697 6.60427,5.23638 12.67344,10.222059 5.74364,4.718259 15.96138,13.062629 28.90608,24.861719 13.17146,12.0058 27.25859,25.84606 41.91811,41.70382 14.21508,15.37698 27.02325,30.55368 37.95047,44.45231 10.70289,13.6133 18.79919,24.99449 22.96574,31.4945 4.49035,7.00515 5.38684,10.44357 7.78192,14.62256 0.0667,0.20465 0.13639,0.41246 0.20914,0.62381 2.42321,7.0394 6.04524,10.78063 9.8077,21.14976 2.49339,6.87166 5.77003,17.67797 8.864,30.59579 3.1499,13.15131 5.8297,27.2561 7.94939,42.33906 2.19949,15.65091 3.57778,30.8045 4.45242,44.77855 0.85123,13.60007 1.19573,25.74363 1.23462,32.9444 0.0504,9.33458 -1.21894,14.19703 -1.10039,19.86599 a 0.01346271,1.0828501e-4 88.159561 0 0 6.9e-4,0.0173 c 0.0254,0.9627 0.0752,1.94348 0.15625,2.96321 0.67413,8.47995 2.76027,10.96866 3.43441,19.44861 0.65094,8.06712 0.84062,22.06658 -0.0539,39.67518 -0.91248,17.96257 -2.8411,37.84368 -5.904,59.28475 -6.31553,44.21036 -15.60048,82.17238 -20.80345,103.57807 -3.80375,15.64914 -7.22855,28.29287 -8.64964,33.52296 a 4.6961496,4.6961496 90 0 0 9.06368,2.46272 z"
         id="path15" /><path
         style="display:inline;fill:#7b7e7b;fill-opacity:1;fill-rule:nonzero;stroke:#000000;stroke-width:2;stroke-linecap:round;stroke-dasharray:none;stroke-opacity:1"
         d="m 550.66319,362.24622 c 3.92396,-1.25155 12.42793,-3.50669 22.67492,-8.07153 10.39498,-4.63076 25.85862,-13.51246 43.26148,-24.81744 17.85923,-11.60143 35.45236,-24.46078 45.38712,-30.4957 8.76742,-5.32581 14.89219,-6.24944 20.33499,-10.19083 a 0.68745266,5.6414452 57.164688 0 0 2.23468,-1.86075 c 0.1998,-0.22415 0.3985,-0.4528 0.59613,-0.68633 4.90859,-5.8003 5.21594,-9.91683 11.72234,-18.99667 3.98047,-5.55484 10.61277,-14.1374 18.88758,-25.17454 11.10409,-14.81091 23.26673,-31.50021 36.6441,-51.06057 20.8547,-30.49368 34.54987,-53.10746 44.84049,-70.07507 8.55413,-14.10442 14.70113,-22.552824 18.54961,-29.541974 2.14324,-3.892301 3.70583,-7.422889 4.45864,-8.971888 a 9.1106401,9.1106401 90 0 0 -16.3884,-7.964634 c -0.69703,1.43424 -2.53394,4.850286 -4.31804,8.688866 -3.26252,7.019459 -6.51389,16.715485 -14.17412,31.01147 -8.43518,15.74223 -23.47962,41.03992 -43.45048,69.60533 -13.16703,18.83353 -26.10528,35.69322 -37.52865,49.28766 -8.76912,10.43573 -15.92258,18.08215 -20.77024,22.667 -7.87216,7.44538 -11.89317,7.93282 -17.11308,12.76006 -0.21017,0.19436 -0.41582,0.389 -0.61739,0.58405 l 2.23469,-1.86075 c -5.57215,3.29969 -8.77933,8.43218 -17.24335,13.66664 -9.98457,6.17483 -28.42708,14.49338 -47.89544,21.71814 -17.80486,6.60742 -34.9554,11.52629 -44.15642,14.58652 -9.4426,3.14058 -17.00102,6.17693 -20.28166,7.2233 a 19.927106,19.927106 90 0 0 12.1105,37.96964 z"
         id="path11" /></g><path
       style="display:inline;fill:#7b7e7b;fill-opacity:1;fill-rule:nonzero;stroke:#000000;stroke-width:2;stroke-linecap:round;stroke-dasharray:none;stroke-opacity:1"
       d="m 514.90829,132.03231 c 0.0669,-0.13414 0.13384,-0.26773 0.20093,-0.40077 4.26034,-8.95187 9.06295,-15.50007 14.01594,-20.13667 5.00315,-4.68355 10.25685,-7.51206 15.52973,-8.90589 5.29258,-1.39903 10.84696,-1.41507 16.47454,-0.13278 5.64601,1.2865 11.34514,3.87894 16.78206,7.64937 5.43285,3.76763 10.52238,8.65645 14.93929,14.41837 4.41466,5.75898 8.11349,12.33321 10.80435,19.42589 2.14584,5.65607 3.64057,11.61492 4.35727,17.72673 0.18147,1.54745 0.31299,3.10417 0.39265,4.66784 0.39405,7.7351 -0.4808,15.63927 -2.86151,23.45408 -4.76946,15.65847 -11.04851,29.19774 -18.02614,41.40146 -6.99597,12.2358 -14.69675,23.14071 -22.46325,33.72905 -4.26591,5.81587 -8.54653,11.52757 -12.72444,17.31931 -3.40201,4.71613 -6.79316,9.56751 -10.08395,14.45323 -6.37807,9.4693 -13.22782,20.31258 -19.4475,31.82495 -0.74539,1.37968 -1.4895,2.78295 -2.22694,4.21432 -1.53737,2.3655 -3.09624,4.91504 -4.68017,7.75602 -1.58004,2.83397 -3.16751,5.92766 -4.72065,9.29611 -3.1037,6.73129 -6.0564,14.53621 -8.41007,23.23277 -1.28029,4.73057 -2.38273,9.72257 -3.23301,14.9367 -2.27599,13.95699 -2.74504,29.49719 -2.0907,45.73343 0.8988,22.30188 3.9171,45.91376 7.28816,68.67088 0.20573,1.38883 0.41277,2.77448 0.62073,4.15654 3.19882,21.25912 6.61598,41.67938 10.07846,59.54383 1.15213,6.2356 2.6758,12.34819 4.46466,18.31887 4.02465,13.43306 9.51773,26.55976 15.69431,39.07912 8.90057,18.04063 19.67187,35.71886 30.5771,52.11367 7.99932,12.02609 16.21676,23.57817 24.02897,34.28615 2.88681,3.95686 5.72694,7.81025 8.48211,11.53842 5.12593,6.9362 9.9304,13.40238 14.29031,19.42008 4.3571,6.01384 8.19477,11.47665 11.36613,16.36239 14.42335,22.45105 24.77355,46.87852 30.19858,72.10942 5.42394,25.2258 5.91708,51.21279 0.68401,76.83785 -1.42595,7.2206 -4.10964,14.80233 -7.92721,22.33596 -2.43192,4.7992 -5.31659,9.56423 -8.61385,14.1898 -1.87342,2.62814 -3.87904,5.20985 -6.00957,7.72572 -11.77039,13.89923 -27.29979,25.72732 -45.31881,32.31198 -17.4872,6.39476 -38.40106,9.72411 -58.82478,8.82158 -10.20139,-0.4508 -20.24613,-1.95604 -29.6525,-4.64176 -9.40687,-2.68587 -18.15018,-6.54502 -25.77126,-11.68939 -1.95842,-1.32226 -3.93091,-2.86152 -5.90997,-4.59471 -2.13134,-1.86654 -4.26266,-3.95129 -6.38477,-6.2208 -4.09441,-4.37882 -8.13156,-9.42077 -12.04739,-14.86413 -7.83451,-10.89069 -15.12043,-23.29989 -21.35537,-35.03783 -8.37659,-15.76984 -14.81471,-30.24929 -18.0992,-38.05831 -1.63108,-3.79542 -2.51367,-5.99749 -2.50592,-5.97815 a 2.9274248,2.9274248 90 0 0 -5.4344,2.17866 c 0.008,0.0193 0.90823,2.26493 2.56115,6.11117 3.44441,7.84899 10.03884,22.44132 18.56821,38.36575 6.34339,11.84315 13.78106,24.46855 21.81478,35.62245 4.01831,5.57897 8.20168,10.81214 12.48897,15.40564 2.22428,2.38313 4.48272,4.60077 6.76707,6.60887 2.12065,1.8642 4.27028,3.55367 6.44237,5.02945 8.15752,5.54422 17.43035,9.67456 27.29361,12.55945 9.86379,2.88503 20.34346,4.53206 30.93726,5.09542 21.16613,1.12558 42.92772,-2.06802 61.33178,-8.50412 19.34063,-6.77068 36.03172,-19.10467 48.76136,-33.64293 2.30842,-2.6364 4.48838,-5.3473 6.53181,-8.11329 3.59524,-4.86652 6.7711,-9.90798 9.48389,-15.01789 4.25041,-8.00623 7.38387,-16.21802 9.1994,-24.22602 5.91163,-26.72744 6.00836,-53.95946 1.20861,-80.62383 -4.7986,-26.65801 -14.49906,-52.79704 -28.23924,-77.38706 -3.0093,-5.43551 -6.64215,-11.40185 -10.66022,-17.77884 -4.01629,-6.37415 -8.46839,-13.23848 -13.10019,-20.43126 -2.50277,-3.88656 -5.06367,-7.87771 -7.65453,-11.96618 -7.02406,-11.08418 -14.23715,-22.83513 -20.9525,-35.0531 -9.20995,-16.75666 -17.37195,-34.19786 -22.73169,-51.60338 -3.7143,-12.06202 -5.99969,-23.85409 -6.40229,-35.02304 -0.17728,-4.91846 0.0132,-9.65848 0.57233,-14.1911 1.53032,-17.20997 3.99238,-36.94061 7.06161,-57.50918 0.19921,-1.33497 0.40091,-2.67309 0.60468,-4.01393 3.33505,-21.94557 7.23428,-44.68231 9.68807,-65.92876 1.7891,-15.49113 2.81803,-30.24155 2.31831,-43.48947 -0.18666,-4.94865 -0.58674,-9.69034 -1.13013,-14.17544 -0.99653,-8.2251 -2.48479,-15.65345 -4.02489,-21.82286 -0.76827,-3.0776 -1.56377,-5.89629 -2.31798,-8.30149 -0.74574,-2.37819 -1.49988,-4.50735 -2.16497,-6.0206 -0.19375,-1.05612 -0.35108,-2.11756 -0.46833,-3.1838 -1.01588,-9.23856 0.98672,-18.52837 4.66539,-27.98963 1.84715,-4.75072 4.09824,-9.51069 6.58541,-14.39787 3.04563,-5.98454 6.39181,-12.05757 9.94438,-18.44007 6.43177,-11.55524 13.43293,-23.92997 19.90662,-37.66141 6.49203,-13.77034 12.44718,-28.88448 16.94045,-46.15114 2.63359,-10.00834 3.37918,-19.98275 2.61408,-29.58097 -0.15459,-1.9394 -0.37084,-3.86337 -0.64561,-5.76928 -1.08435,-7.52169 -3.08118,-14.77026 -5.80465,-21.58848 -3.41165,-8.54107 -7.98059,-16.44981 -13.38245,-23.41704 -5.39948,-6.96415 -11.67717,-13.04664 -18.54498,-17.888653 -6.864,-4.839326 -14.4011,-8.497171 -22.31058,-10.495164 -7.92998,-2.003171 -16.24736,-2.337828 -24.53723,-0.488212 -8.30844,1.853767 -16.33877,5.847304 -23.71207,12.15432 -7.23835,6.191579 -13.74687,14.526139 -19.32377,25.082209 -0.0809,0.16044 -0.16159,0.32138 -0.24206,0.48282 a 9.839198,9.839198 90 0 0 17.6118,8.77858 z"
       id="path5"
       transform="matrix(1.1097414,0,0,1.1097417,-67.107399,-38.224255)" /><path
       style="fill:#ffffff;fill-opacity:1;fill-rule:nonzero;stroke:#000000;stroke-width:2;stroke-linecap:round;stroke-dasharray:none;stroke-opacity:1"
       d="m 546.52672,50.496183 c 0.22863,4.485766 -0.0252,11.549621 -1.50509,19.527608 -0.2894,1.560134 -0.65539,3.255656 -1.13513,5.050846 -1.63162,6.105518 -4.16486,11.817745 -7.95988,17.396318 -3.68637,5.418856 -7.96016,9.823735 -11.74242,13.490655 -1.13623,1.10158 -2.198,2.10759 -3.1306,3.00346 -4.39657,4.22342 -8.55249,8.81946 -10.43494,10.58643 a 11.05858,11.05858 90 0 0 15.13674,16.126 c 1.99071,-1.86859 7.37485,-6.27943 11.83429,-12.0248 0.9464,-1.2193 1.98909,-2.65597 3.0644,-4.26735 3.5876,-5.37612 7.29608,-12.30874 9.71922,-20.347202 2.47139,-8.198496 3.14257,-15.977197 2.70869,-23.14076 -0.12841,-2.120096 -0.34711,-4.069661 -0.60346,-5.801105 -1.26435,-8.539468 -4.38921,-15.801136 -5.95182,-19.6001 z"
       id="path3"
       transform="matrix(1.1097414,0,0,1.1097417,-67.8396,-41.142589)" /><path
       style="fill:#ffffff;fill-opacity:1;fill-rule:nonzero;stroke:#000000;stroke-width:2;stroke-linecap:round;stroke-dasharray:none;stroke-opacity:1"
       d="m 546.52672,50.496183 c 0.22863,4.485766 -0.0252,11.549621 -1.50509,19.527608 -0.2894,1.560134 -0.65539,3.255656 -1.13513,5.050846 -1.63162,6.105518 -4.16486,11.817745 -7.95988,17.396318 -3.68637,5.418856 -7.96016,9.823735 -11.74242,13.490655 -1.13623,1.10158 -2.198,2.10759 -3.1306,3.00346 -4.39657,4.22342 -8.55249,8.81946 -10.43494,10.58643 a 11.05858,11.05858 90 0 0 15.13674,16.126 c 1.99071,-1.86859 7.37485,-6.27943 11.83429,-12.0248 0.9464,-1.2193 1.98909,-2.65597 3.0644,-4.26735 3.5876,-5.37612 7.29608,-12.30874 9.71922,-20.347202 2.47139,-8.198496 3.14257,-15.977197 2.70869,-23.14076 -0.12841,-2.120096 -0.34711,-4.069661 -0.60346,-5.801105 -1.26435,-8.539468 -4.38921,-15.801136 -5.95182,-19.6001 z"
       id="path4"
       transform="matrix(-0.88289389,-0.67232784,-0.67232768,0.8828941,1014.1037,333.81999)" /><path
       style="display:inline;fill:#7b7e7b;fill-opacity:1;stroke:#000000;stroke-width:2.21948;stroke-linecap:round;stroke-dasharray:none;stroke-opacity:1"
       d="m 449.43066,82.237785 c -7.76525,30.747435 -5.20607,77.436835 -3.39122,103.542825 0.67141,9.65792 2.92278,25.86667 7.22643,26.35695 4.66555,0.5315 15.19667,-11.86988 20.99582,-18.83531 18.20272,-21.86354 47.89406,-67.3338 57.8913,-95.434895 -27.33386,-14.7421 -53.36096,-19.13503 -82.72233,-15.62957 z"
       id="path7" /></g></svg>
