<?xml version="1.0" encoding="UTF-8" standalone="no"?>
<!-- Created with Inkscape (http://www.inkscape.org/) -->

<svg
   width="1080"
   height="1080"
   viewBox="0 0 1080 1080"
   version="1.1"
   id="svg1"
   xml:space="preserve"
   sodipodi:docname="logo-dragon-small.svg"
   inkscape:version="1.3.2 (091e20ef0f, 2023-11-25, custom)"
   inkscape:export-filename="logo-dragon-icon.png"
   inkscape:export-xdpi="5.688889"
   inkscape:export-ydpi="5.688889"
   xmlns:inkscape="http://www.inkscape.org/namespaces/inkscape"
   xmlns:sodipodi="http://sodipodi.sourceforge.net/DTD/sodipodi-0.dtd"
   xmlns:xlink="http://www.w3.org/1999/xlink"
   xmlns="http://www.w3.org/2000/svg"
   xmlns:svg="http://www.w3.org/2000/svg"><sodipodi:namedview
     id="namedview1"
     pagecolor="#505050"
     bordercolor="#eeeeee"
     borderopacity="1"
     inkscape:showpageshadow="0"
     inkscape:pageopacity="0"
     inkscape:pagecheckerboard="0"
     inkscape:deskcolor="#505050"
     inkscape:zoom="0.75185185"
     inkscape:cx="541.99508"
     inkscape:cy="540"
     inkscape:window-width="1920"
     inkscape:window-height="1056"
     inkscape:window-x="1920"
     inkscape:window-y="0"
     inkscape:window-maximized="1"
     inkscape:current-layer="svg1" /><defs
     id="defs1" /><g
     id="g37"
     style="display:inline"><use
       x="0"
       y="0"
       xlink:href="#g33"
       id="use64"
       transform="matrix(-1,0,0,1,1088.1452,9.7767329e-5)" /><g
       id="g33"
       transform="matrix(1.0893715,0,0,1.0893715,-48.624587,95.855806)"><path
         id="path26"
         style="display:inline;fill:#a3b59e;fill-opacity:1;stroke:#000000;stroke-width:1.2;stroke-linecap:round;stroke-dasharray:none;stroke-opacity:1"
         d="m 678.17476,275.93357 c 50.01509,-57.9842 97.41066,-128.76005 132.78654,-195.893747 55.21883,52.314747 117.75053,98.680557 155.67989,173.471617 20.50848,64.82619 34.37341,130.75965 32.9771,199.23664 5.08261,84.96183 -13.70852,169.92366 -35.72519,254.88549 C 892.01788,620.21495 798.79514,598.12859 692.74871,609.19137 655.53328,584.68419 615.70262,558.54627 540,564.0121 V 346.37436 l 138.17476,-70.44079" /><path
         style="display:none;fill:#7b7e7b;fill-opacity:1;fill-rule:nonzero;stroke:#000000;stroke-width:2;stroke-linecap:round;stroke-dasharray:none;stroke-opacity:1"
         d="m 655.77392,293.73165 c 1.65136,2.86039 5.28085,9.24213 9.6319,17.72622 5.76754,11.24611 13.22288,27.03241 21.52277,48.84335 8.37721,22.01414 15.39914,44.29564 21.94656,65.55138 -0.0283,1.2002 -0.0642,2.39821 -0.10696,3.59236 -0.38533,10.7547 -1.37954,22.73889 -3.07609,35.75253 -2.07397,15.90864 -5.03696,32.12239 -8.63019,47.83996 -4.18801,18.31932 -8.83374,34.24299 -13.13784,47.11186 -1.50977,4.5141 -2.94388,8.55282 -4.25836,12.09693 -5.37955,14.50439 -10.10916,24.38633 -12.40149,29.09007 a 24.655098,24.655098 90 0 0 44.32652,21.6022 c 2.78885,-5.72256 8.04407,-17.03746 14.23885,-33.36044 1.50406,-3.96314 3.14932,-8.44305 4.88776,-13.42834 4.95613,-14.21256 10.32244,-31.55005 15.23002,-51.49052 4.20204,-17.07371 7.76214,-34.83392 10.33227,-52.45427 2.10236,-14.41339 3.4418,-28.046 4.02578,-40.61789 0.13788,-2.96821 0.23944,-5.99134 0.29567,-9.04936 a 27.921848,22.590183 43.044028 0 0 -1.09558,-7.81385 c -6.61877,-22.41586 -14.3445,-47.77093 -23.78411,-72.87519 -8.96422,-23.83995 -17.20972,-41.43867 -23.71603,-54.20759 -4.89159,-9.59995 -9.02289,-16.8079 -10.90905,-20.07499 a 26.166574,26.166574 90 0 0 -45.3224,26.16558 z"
         id="path28" /><path
         style="display:inline;fill:#7b7e7b;fill-opacity:1;fill-rule:nonzero;stroke:#000000;stroke-width:2;stroke-linecap:round;stroke-dasharray:none;stroke-opacity:1"
         d="m 992.46032,716.33285 c 1.23997,-4.56357 4.38853,-15.92526 7.89558,-30.40893 4.8899,-20.19474 13.2546,-57.35484 19.2372,-100.16726 6.2767,-44.91705 9.0182,-88.96622 7.2818,-131.51785 -0.091,-2.23636 -0.1956,-4.47813 -0.3133,-6.72488 v 0.0577 c -1.8166,-34.02542 -4.379,-67.11266 -9.7494,-100.47971 -5.3295,-33.11367 -13.2033,-65.23047 -25.01194,-99.82303 -0.21511,-0.63014 -0.43241,-1.26366 -0.65193,-1.90054 a 14.148751,25.17787 3.1494831 0 0 -2.83702,-5.76954 C 967.07539,208.84536 942.19473,176.62494 914.26759,145.72617 885.95663,114.40273 862.38826,93.167398 847.24625,80.288708 837.88207,72.324222 830.53358,66.487987 827.52738,64.14289 a 21.986161,21.986161 90 0 0 -27.04624,34.670824 c 2.78473,2.172326 9.50951,7.389216 18.14281,14.856556 13.77096,11.91111 35.72862,32.20621 61.9086,62.08888 25.90871,29.57303 49.09076,60.68488 68.5584,90.29086 l -2.837,-5.76951 c 0.18963,0.59494 0.37711,1.18654 0.56246,1.77477 10.12961,32.14641 16.25861,61.75938 19.99435,92.16947 3.79293,30.87566 5.03891,61.97347 5.86197,95.45554 a 0.04497568,2.9242358e-4 88.070623 0 0 0.002,0.0577 c 0.0593,2.04335 0.10721,4.08372 0.14401,6.12076 0.70128,38.81245 -2.65678,79.40824 -9.39617,121.49501 -6.4534,40.30075 -14.95994,75.16155 -19.85163,94.5328 -3.427,13.57102 -6.42897,24.9525 -7.5583,29.10884 A 29.246972,29.246972 90 0 0 992.46,716.33283 Z"
         id="path32" /><path
         style="display:inline;fill:#7b7e7b;fill-opacity:1;fill-rule:nonzero;stroke:#000000;stroke-width:2;stroke-linecap:round;stroke-dasharray:none;stroke-opacity:1"
         d="m 559.65513,390.4383 c 3.86017,-1.23121 12.26185,-3.51437 22.87575,-8.08888 11.53139,-4.96993 28.17993,-13.61792 47.88565,-25.69044 23.86854,-14.62284 45.93474,-30.32621 66.49287,-45.79779 a 0.92442872,13.167882 54.232771 0 0 6.82864,-5.68597 c 0.84426,-0.97253 1.68498,-1.94765 2.52128,-2.92359 9.90988,-11.56467 20.92797,-25.65187 32.7053,-41.88581 12.31954,-16.98133 24.6244,-35.14376 36.46119,-53.55748 20.4296,-31.78099 37.39107,-61.56525 47.69792,-78.50034 9.07014,-14.90308 17.181,-24.86414 20.14579,-30.138612 1.01935,-1.81347 1.55219,-3.159032 1.85424,-3.780562 a 36.760431,36.760431 90 0 0 -66.12538,-32.13643 c -0.26643,0.548213 -0.9086,1.618265 -1.62191,3.306825 -2.06669,4.892277 -4.612,16.156178 -11.89906,30.421576 -8.50893,16.657353 -24.8559,42.634313 -46.57247,71.746693 -12.24177,16.41084 -25.11207,32.37226 -37.71155,46.79074 -12.13119,13.88259 -22.96815,25.14594 -32.17589,33.89703 -0.76885,0.73072 -1.53728,1.45189 -2.30427,2.16222 l 6.82862,-5.68596 c -19.7854,11.07587 -42.27687,21.60618 -64.36804,30.27352 -19.18979,7.529 -32.35511,11.49707 -42.34148,14.80512 -8.50962,2.81886 -14.51345,5.23462 -17.27158,6.11434 a 49.518463,49.518463 90 0 0 30.09438,94.3538 z"
         id="path33" /></g><path
       style="display:inline;fill:#7b7e7b;fill-opacity:1;fill-rule:nonzero;stroke:#000000;stroke-width:2;stroke-linecap:round;stroke-dasharray:none;stroke-opacity:1"
       d="m 536.15456,142.62249 c 0.22786,-0.45716 0.45547,-0.90176 0.68258,-1.33409 3.65496,-5.83121 6.99496,-8.97143 9.39259,-10.53632 2.51345,-1.64048 4.01771,-1.61718 4.80245,-1.50923 0.59515,0.0819 1.98625,0.44398 3.3701,0.9749 1.66385,0.63834 3.98155,1.76264 6.74605,3.83714 2.75682,2.06874 5.66726,4.87128 8.41507,8.43221 2.73533,3.54478 5.13671,7.61991 6.98642,12.04337 1.37222,3.2816 2.41334,6.68888 3.07781,10.14609 0.22687,1.18044 0.4098,2.36642 0.54651,3.55566 0.5331,4.63772 0.37468,9.41547 -0.70188,14.23106 -3.33025,13.8262 -7.93882,26.09806 -13.62927,37.49508 -5.73314,11.4825 -12.50143,21.9672 -20.26416,32.48482 -4.23733,5.74112 -8.6054,11.27591 -13.32014,17.14827 -3.71075,4.62185 -8.25112,10.21007 -12.23607,15.24907 -8.84217,11.18099 -18.87227,24.4934 -27.78071,40.68595 -0.16674,0.30307 -0.33318,0.60731 -0.49931,0.91276 -2.06552,3.11533 -4.01045,6.07287 -6.03026,9.34057 -1.99545,3.2283 -3.96412,6.60158 -5.90057,10.2265 -3.86436,7.23386 -7.52703,15.34248 -10.57504,24.33911 -1.90434,5.62092 -3.55999,11.56602 -4.85149,17.78865 -2.83399,13.65466 -3.91284,28.63959 -3.80201,44.24367 0.16137,22.71767 2.84337,46.75382 6.3189,70.01614 0.15608,1.04472 0.31377,2.08791 0.47291,3.12941 3.38499,22.153 7.4254,43.54034 11.88737,62.54241 2.00083,10.26941 4.87238,20.02854 8.2417,29.21986 5.00022,13.64034 11.26244,26.47666 17.94388,38.31927 11.08245,19.64324 24.24371,38.15902 36.78215,54.4999 10.02926,13.07075 20.29121,25.5566 29.47369,36.65966 2.13937,2.58685 4.84404,5.8512 6.98342,8.43804 5.56615,6.72922 10.61046,12.8589 15.14886,18.54619 4.55346,5.70617 8.31706,10.61782 11.36059,14.89047 13.92513,20.06524 23.15369,42.31062 27.4154,64.97372 4.26,22.65398 3.52315,45.41562 -1.97379,67.28944 -1.4135,4.63681 -3.70224,9.83901 -6.9372,15.32317 -3.05047,5.1714 -6.8115,10.37119 -11.17405,15.36233 -0.24094,0.27565 -0.48355,0.55049 -0.72782,0.82445 -9.38769,10.529 -20.8844,19.40287 -33.60589,24.69545 -13.8529,5.71074 -31.16352,9.5078 -48.48188,9.89919 -8.56864,0.19365 -16.86933,-0.45386 -24.5313,-1.98066 -7.63645,-1.52173 -14.53184,-3.89918 -20.40542,-7.08502 -1.42986,-0.74323 -3.08781,-1.81636 -4.93562,-3.24841 -1.4352,-1.11227 -2.94528,-2.41004 -4.51813,-3.88874 -3.61139,-3.39522 -7.37723,-7.57678 -11.20155,-12.35992 -7.67563,-9.60005 -15.06593,-20.96144 -21.6225,-32.03024 -8.56632,-14.46163 -15.34326,-27.78917 -19.30181,-35.24533 -1.74687,-4.04734 -2.68109,-6.38131 -2.63146,-6.25751 a 17.76712,17.76712 90 0 0 -32.98246,13.22268 c 0.0496,0.1238 1.09915,2.73804 2.98867,7.116 2.9402,8.50339 8.9013,23.4793 16.81255,39.89454 6.01804,12.48698 13.35874,26.21082 21.54763,38.63004 4.10683,6.22839 8.56751,12.34355 13.33483,17.90985 2.09955,2.45142 4.29454,4.83861 6.58317,7.10943 2.92448,2.90174 6.07972,5.69101 9.46725,8.20726 9.8986,7.4979 21.04984,13.1231 32.65946,17.1638 11.60867,4.0404 23.83141,6.5523 36.05846,7.7565 24.28539,2.3918 49.62241,-0.2787 71.67467,-7.4265 24.6563,-8.0702 45.27217,-23.25072 60.47427,-41.25944 0.39936,-0.47309 0.79505,-0.94826 1.18705,-1.42545 7.05657,-8.59022 12.95073,-17.87676 17.55021,-27.43446 4.84278,-10.06327 8.35166,-20.63944 10.18941,-31.2388 5.64722,-30.48535 4.51504,-60.92934 -1.44918,-90.17221 -5.953,-29.18787 -16.79292,-57.58487 -31.02241,-84.52279 -3.14938,-6.04587 -6.83185,-12.56891 -10.66579,-19.25079 -3.87316,-6.75024 -8.0161,-13.86318 -12.24165,-21.30515 -1.731,-3.04862 -3.47458,-6.14991 -5.21831,-9.30157 -6.78273,-12.2593 -13.51761,-25.19237 -19.44264,-38.44453 -7.48486,-16.74092 -13.44069,-33.48392 -16.52666,-49.21717 -1.83804,-9.37089 -2.57757,-18.00492 -2.13936,-25.63873 0.29307,-5.10518 1.10423,-9.59437 2.336,-13.43434 2.60749,-17.36984 5.47198,-35.5229 8.86429,-56.6662 0.0902,-0.56234 0.37287,-2.32307 0.46309,-2.88541 3.4413,-21.44169 7.00087,-43.74522 8.71881,-64.5835 1.18148,-14.3312 1.49725,-28.01579 0.30944,-40.3519 -0.54108,-5.61938 -1.39502,-10.96718 -2.45105,-15.95083 -1.67805,-7.91915 -3.90054,-15.0609 -6.18986,-20.71649 -1.14331,-2.82448 -2.33656,-5.3569 -3.4979,-7.37111 -1.15286,-1.99949 -2.35058,-3.6246 -3.51506,-4.43604 -0.0715,-0.12759 -0.14197,-0.25571 -0.21144,-0.38436 -3.8097,-7.05533 -4.42753,-15.479 -2.19708,-25.22963 1.02924,-4.49943 2.63684,-9.17255 4.71283,-14.05729 2.4675,-5.80596 5.54871,-11.80302 9.06914,-18.15588 6.46965,-11.67492 14.34005,-24.35944 22.10572,-38.90565 7.78572,-14.58374 15.39832,-30.95186 21.33729,-50.0575 3.94015,-13.0029 5.39738,-26.11307 4.77374,-38.80398 -0.15851,-3.22558 -0.45115,-6.41905 -0.86995,-9.57241 -1.22497,-9.22343 -3.52967,-18.10819 -6.70592,-26.47818 -4.25525,-11.21335 -10.11674,-21.61506 -17.20037,-30.799556 -7.07349,-9.171332 -15.52045,-17.327707 -25.06921,-23.874813 -9.5379,-6.539663 -20.45344,-11.65683 -32.34657,-14.307391 -11.98512,-2.671058 -24.843,-2.794545 -37.64167,0.619456 -12.85617,3.429347 -24.51677,10.127081 -34.43937,19.55098 -9.16094,8.700515 -16.55346,19.432506 -22.37337,31.624914 -0.45184,0.86013 -0.89655,1.72921 -1.33416,2.60715 a 33.578527,33.578527 90 0 0 60.10434,29.95894 z"
       id="path34"
       transform="translate(0,49.497474)" /><g
       id="g64"
       transform="matrix(1.8080093,0,0,1.8080093,-405.34599,-46.614884)"><path
         style="fill:#ffffff;fill-opacity:1;fill-rule:nonzero;stroke:#000000;stroke-width:2;stroke-linecap:round;stroke-dasharray:none;stroke-opacity:1"
         d="m 546.52672,50.496183 c 0.22863,4.485766 -0.0252,11.549621 -1.50509,19.527608 -0.2894,1.560134 -0.65539,3.255656 -1.13513,5.050846 -1.63162,6.105518 -4.16486,11.817745 -7.95988,17.396318 -3.68637,5.418856 -7.96016,9.823735 -11.74242,13.490655 -1.13623,1.10158 -2.198,2.10759 -3.1306,3.00346 -4.39657,4.22342 -8.55249,8.81946 -10.43494,10.58643 a 11.05858,11.05858 90 0 0 15.13674,16.126 c 1.99071,-1.86859 7.37485,-6.27943 11.83429,-12.0248 0.9464,-1.2193 1.98909,-2.65597 3.0644,-4.26735 3.5876,-5.37612 7.29608,-12.30874 9.71922,-20.347202 2.47139,-8.198496 3.14257,-15.977197 2.70869,-23.14076 -0.12841,-2.120096 -0.34711,-4.069661 -0.60346,-5.801105 -1.26435,-8.539468 -4.38921,-15.801136 -5.95182,-19.6001 z"
         id="path35"
         transform="translate(-0.65979405,-2.6297418)" /><path
         style="fill:#ffffff;fill-opacity:1;fill-rule:nonzero;stroke:#000000;stroke-width:2;stroke-linecap:round;stroke-dasharray:none;stroke-opacity:1"
         d="m 546.52672,50.496183 c 0.22863,4.485766 -0.0252,11.549621 -1.50509,19.527608 -0.2894,1.560134 -0.65539,3.255656 -1.13513,5.050846 -1.63162,6.105518 -4.16486,11.817745 -7.95988,17.396318 -3.68637,5.418856 -7.96016,9.823735 -11.74242,13.490655 -1.13623,1.10158 -2.198,2.10759 -3.1306,3.00346 -4.39657,4.22342 -8.55249,8.81946 -10.43494,10.58643 a 11.05858,11.05858 90 0 0 15.13674,16.126 c 1.99071,-1.86859 7.37485,-6.27943 11.83429,-12.0248 0.9464,-1.2193 1.98909,-2.65597 3.0644,-4.26735 3.5876,-5.37612 7.29608,-12.30874 9.71922,-20.347202 2.47139,-8.198496 3.14257,-15.977197 2.70869,-23.14076 -0.12841,-2.120096 -0.34711,-4.069661 -0.60346,-5.801105 -1.26435,-8.539468 -4.38921,-15.801136 -5.95182,-19.6001 z"
         id="path36"
         transform="matrix(-0.7955852,-0.60584172,-0.60584172,0.7955852,974.291,335.253)" /><path
         style="display:inline;fill:#7b7e7b;fill-opacity:1;stroke:#000000;stroke-width:2;stroke-linecap:round;stroke-dasharray:none;stroke-opacity:1"
         d="m 465.45802,108.54962 c -6.99735,27.70683 -4.69125,69.77914 -3.05587,93.30353 0.60502,8.70285 2.63375,23.30873 6.51182,23.75052 4.20417,0.47894 13.69388,-10.69607 18.91955,-16.97269 16.40267,-19.70147 43.15786,-60.6752 52.16648,-85.99739 -24.63084,-13.28426 -48.08413,-17.24278 -74.54198,-14.08397 z"
         id="path37" /></g></g></svg>
