<?xml version="1.0" encoding="UTF-8" standalone="no"?>
<!-- Created with Inkscape (http://www.inkscape.org/) -->

<svg
   width="1200"
   height="630"
   viewBox="0 0 1200 630"
   version="1.1"
   id="svg1"
   inkscape:version="1.3.2 (091e20ef0f, 2023-11-25, custom)"
   sodipodi:docname="wing-right.svg"
   xmlns:inkscape="http://www.inkscape.org/namespaces/inkscape"
   xmlns:sodipodi="http://sodipodi.sourceforge.net/DTD/sodipodi-0.dtd"
   xmlns:xlink="http://www.w3.org/1999/xlink"
   xmlns="http://www.w3.org/2000/svg"
   xmlns:svg="http://www.w3.org/2000/svg">
  <sodipodi:namedview
     id="namedview1"
     pagecolor="#505050"
     bordercolor="#eeeeee"
     borderopacity="1"
     inkscape:showpageshadow="0"
     inkscape:pageopacity="0"
     inkscape:pagecheckerboard="0"
     inkscape:deskcolor="#505050"
     inkscape:document-units="px"
     inkscape:zoom="0.655"
     inkscape:cx="544.27481"
     inkscape:cy="311.45038"
     inkscape:window-width="1920"
     inkscape:window-height="1016"
     inkscape:window-x="0"
     inkscape:window-y="0"
     inkscape:window-maximized="1"
     inkscape:current-layer="svg1" />
  <defs
     id="defs1">
    <symbol
       id="wing-left">
      <g
         id="wing-left_transform"
         transform="matrix(-1,0,0,1,1200.4212,1.0242939e-4)"
         inkscape:label="WingLeft">
        <path
           id="path1"
           style="display:inline;fill:none;fill-opacity:1;stroke:#ffffff;stroke-width:8;stroke-linecap:round;stroke-linejoin:round;stroke-dasharray:none;stroke-opacity:1"
           d="m 211.14972,125.82442 c 80.84558,-22.84776 167.02647,-58.990188 240.00115,-99.064976 99.12251,2.488785 130.4585,8.232129 257.39076,36.722427 34.81223,24.745405 84.02415,4.185182 201.15695,82.484109 46.11857,15.05264 105.63262,30.94779 258.54982,118.92278 -139.2505,5.73736 -233.44512,174.16768 -264.08344,324.99093 -85.867,-46.58985 -247.22936,-53.49138 -319.98968,19.1828 C 558.41808,506.65005 331.16469,469.60331 243.92758,490.26768 207.04644,437.10581 152.27587,392.62064 42.061695,430.58701 m 0,-323.80978 169.088025,19.04719"
           inkscape:transform-center-x="-561.91845"
           inkscape:transform-center-y="211.82849"
           sodipodi:nodetypes="ccccccccccc" />
        <path
           style="display:inline;fill:#ffffff;fill-opacity:1;fill-rule:nonzero;stroke:#ffffff;stroke-width:5;stroke-linecap:round;stroke-linejoin:round;stroke-dasharray:none;stroke-opacity:1"
           d="m 206.21315,131.63746 c 2.1006,3.23773 6.46525,10.19234 11.87708,19.36148 7.62723,12.92256 17.4132,29.16463 29.31445,54.09898 12.18887,25.5369 22.51363,52.20716 24.90704,62.72494 1.42063,6.24291 -0.17032,8.41848 1.04167,12.77693 0.0707,0.25458 0.14574,0.50371 0.22468,0.74832 0.51099,4.40358 1.90165,8.77841 2.20045,16.86266 0.26075,7.05418 0.12441,17.97505 -0.91845,31.86321 -1.24699,16.60598 -3.61975,35.2837 -7.21614,54.96025 -3.86859,21.16573 -8.41482,39.49516 -12.62069,54.28431 -1.15258,4.05287 -2.22934,7.66516 -3.19022,10.80823 -5.64705,18.47138 -10.89903,31.25109 -13.65477,37.74137 a 5.7324459,5.7324444 87.023821 0 0 10.55303,4.48076 c 2.89277,-6.81309 8.12699,-19.88841 14.05453,-38.83405 1.00438,-3.21019 2.11689,-6.90507 3.29837,-11.04524 4.31337,-15.11528 8.87446,-33.81206 12.84372,-55.36501 3.70949,-20.14252 6.20039,-38.946 7.84686,-56.007 1.39322,-14.43688 1.9552,-25.13339 2.45672,-32.67706 0.62265,-9.36532 2.05457,-14.05068 1.96302,-19.36298 a 8.5288668,3.4798734 56.84645 0 0 -0.51593,-2.66483 c -0.19443,-0.58694 -0.41933,-1.17504 -0.68498,-1.77239 -1.84546,-4.15018 -4.45217,-4.82058 -7.38667,-10.54429 -4.96028,-9.67507 -14.1197,-36.79512 -24.86034,-63.51617 -10.1029,-25.13436 -19.44854,-44.50916 -26.63224,-57.11338 -5.44066,-9.54599 -10.10228,-16.66049 -12.27103,-20.00331 a 7.5277391,7.5277371 87.023821 0 0 -12.63016,8.19427 z"
           id="path2"
           inkscape:transform-center-x="-204.86549"
           inkscape:transform-center-y="202.49798" />
        <path
           style="display:inline;fill:#ffffff;fill-opacity:1;fill-rule:nonzero;stroke:#ffffff;stroke-width:5;stroke-linecap:round;stroke-linejoin:round;stroke-dasharray:none;stroke-opacity:1"
           d="m 449.56543,44.681923 c 2.47352,3.846526 7.63242,12.024274 13.85978,22.684694 8.74106,14.963662 19.71477,34.176453 33.15561,62.989083 6.79967,14.57626 13.12057,29.25224 18.58377,42.61597 5.33618,13.05307 9.83545,24.81696 12.04856,31.49884 2.91715,8.80762 2.43699,12.06026 4.83202,18.34406 0.31344,0.82228 0.63653,1.60033 0.97051,2.35049 a 0.95659776,0.00990121 66.056005 0 0 0.35927,0.78699 c 2.34375,4.00084 5.27814,6.72639 9.41851,14.77019 2.99925,5.82685 7.63967,15.68158 13.22203,29.51087 6.37588,15.79507 13.26919,35.02132 19.68775,56.11136 6.45963,21.22494 11.45576,41.1178 14.79181,58.00629 3.10123,15.69988 4.41813,27.06422 4.59743,33.32711 0.21997,7.68244 -1.72612,9.40107 -1.6266,14.31056 0.023,1.13631 0.11644,2.18877 0.26082,3.21673 a 0.49363033,0.01352903 82.564737 0 0 0.0643,0.62733 c 0.89591,4.27123 2.84319,8.28205 3.92275,15.96913 0.88659,6.31299 1.73348,16.31469 1.78518,28.95626 0.0525,12.84007 -0.70997,26.87436 -2.41181,41.9609 -3.60199,31.93106 -10.43536,59.52152 -13.71259,72.30558 -1.85773,7.24677 -3.48689,12.7021 -4.11072,14.8602 a 5.3167382,5.3167368 78.604012 0 0 10.21525,2.95287 c 0.55696,-1.92675 2.25613,-8.02772 4.17661,-15.09858 3.52351,-12.97288 10.646,-40.92399 14.97781,-73.60221 2.0557,-15.50783 3.19974,-29.79936 3.68113,-43.16974 0.48036,-13.34336 0.22299,-23.32417 0.12649,-30.27399 -0.11328,-8.15796 0.73474,-12.77321 0.41353,-17.45273 l 0.0643,0.62732 c -0.006,-1.13083 -0.082,-2.28333 -0.25744,-3.49923 -0.75894,-5.26137 -2.95432,-6.65571 -4.81547,-14.40981 -1.49802,-6.24123 -3.68638,-18.01992 -7.22535,-33.74785 -3.906,-17.3591 -8.84022,-36.9431 -15.20567,-58.76033 -6.28838,-21.55288 -12.69604,-40.89329 -18.60806,-57.33205 -5.16817,-14.37048 -9.23533,-24.53187 -11.75126,-30.93287 -3.41673,-8.69281 -3.97332,-12.81623 -6.03283,-17.32774 l 0.35924,0.78697 c -0.27262,-0.77244 -0.57206,-1.55774 -0.90872,-2.3688 -2.57264,-6.1978 -5.14634,-8.23288 -9.07046,-16.64757 -3.12663,-6.7046 -7.62261,-17.72777 -13.07339,-31.19773 C 520.83656,154.85597 514.9098,140.14991 508.4007,125.05336 495.85303,95.951278 485.04416,74.742657 476.44913,59.81413 470.13112,48.840479 464.76342,40.48084 462.22852,36.538854 a 7.5277287,7.5277268 78.604012 0 0 -12.6632,8.143094 z"
           id="path3"
           inkscape:transform-center-x="-487.41313"
           inkscape:transform-center-y="219.45091" />
        <path
           style="display:inline;fill:#ffffff;fill-opacity:1;fill-rule:nonzero;stroke:#ffffff;stroke-width:5;stroke-linecap:round;stroke-linejoin:round;stroke-dasharray:none;stroke-opacity:1"
           d="m 454.23534,34.354768 c 3.11102,1.43648 8.4448,3.943846 18.99069,8.37836 4.89208,2.057083 11.43976,4.643365 21.0413,8.442694 13.57957,5.373424 32.85297,13.008103 53.2354,21.883961 20.27398,8.828673 39.73497,18.046549 57.47059,27.583817 17.4034,9.35863 30.37626,17.57105 37.43775,22.93576 8.0731,6.13322 8.79899,9.36638 14.3216,13.66613 0.62537,0.4869 1.24218,0.94384 1.85682,1.37919 4.39935,4.20955 9.3076,7.20166 16.71736,14.32713 12.76313,12.27345 40.36279,40.25094 64.68363,68.95048 21.23353,25.05635 36.99198,47.0931 45.46427,61.42831 6.88925,11.65669 7.39365,17.72269 12.36388,25.95345 2.30904,3.82381 4.55941,6.57513 7.14016,9.66178 l -0.25284,-0.46335 c 2.93207,4.02278 6.35918,8.54474 10.33449,15.54897 4.60524,8.11419 11.68588,21.87166 19.12343,38.29506 7.65113,16.895 15.46981,36.10017 23.12077,58.25121 8.0205,23.2209 14.92001,46.95412 21.13718,71.30244 6.08104,23.81507 10.72231,45.18733 13.44076,57.80646 2.96158,13.74777 5.15316,24.98338 6.00431,29.30152 a 5.4192548,5.4192534 55.165732 0 0 10.63388,-2.09604 c -0.81283,-4.12362 -3.16015,-15.8377 -6.03812,-29.46635 -2.67113,-12.64911 -7.4681,-34.26289 -13.6889,-58.2118 -6.38966,-24.5989 -13.43087,-48.46654 -21.53501,-72.06448 -7.751,-22.56974 -15.44332,-41.90169 -22.82502,-59.31461 -7.2057,-16.99771 -13.58282,-30.9451 -17.29186,-39.74703 -3.21883,-7.63858 -4.75025,-12.84094 -6.34138,-17.77316 a 0.37749298,0.02945221 65.848016 0 0 -0.25287,-0.4634 c -1.46715,-3.82558 -2.93581,-7.32289 -5.35376,-11.20888 -5.26194,-8.45658 -10.5643,-11.67397 -19.04936,-22.58165 -13.94175,-17.9224 -23.07784,-31.10932 -48.1006,-60.93229 -24.36528,-29.03941 -51.40805,-58.29632 -62.99224,-71.47453 -7.18588,-8.17468 -9.9313,-13.31025 -14.3668,-18.07117 a 5.7200888,1.3602575 27.428841 0 0 -1.229,-1.06106 c -0.79936,-0.59048 -1.63483,-1.16744 -2.52371,-1.73389 -6.15584,-3.92293 -9.45964,-3.52606 -18.58412,-8.42893 -7.75284,-4.16583 -21.60508,-12.48915 -38.85264,-21.987426 C 591.22755,82.322301 572.68243,72.767501 552.2236,62.815242 532.41951,53.181474 512.73393,44.129271 499.78905,38.214268 c -8.75831,-4.002021 -16.45863,-7.490481 -20.62436,-9.315797 -10.66683,-4.673866 -15.364,-6.709787 -18.61807,-8.212328 a 7.5277277,7.5277258 55.165732 0 0 -6.31137,13.668682 z"
           id="path4"
           inkscape:transform-center-x="-636.00006"
           inkscape:transform-center-y="201.24172" />
        <path
           style="display:inline;fill:#ffffff;fill-opacity:1;fill-rule:nonzero;stroke:#ffffff;stroke-width:5;stroke-linecap:round;stroke-linejoin:round;stroke-dasharray:none;stroke-opacity:1"
           d="m 1171.7212,261.13547 c -5.0467,-3.17656 -17.3487,-10.8758 -32.6315,-19.96152 -20.6889,-12.29959 -58.94,-33.62278 -103.6657,-53.97434 -22.0242,-10.0217 -42.09201,-18.23879 -60.94286,-25.40816 -18.17472,-6.91217 -33.09944,-12.00885 -41.41184,-15.24215 -10.4514,-4.06513 -11.0812,-4.57011 -17.91786,-8.67761 -0.98719,-0.59736 -1.95931,-1.13411 -2.92358,-1.63518 l 0.0166,0.009 c -5.55962,-2.87735 -10.9822,-3.99603 -20.31185,-8.41126 -11.14357,-5.2736 -21.78356,-10.54181 -32.9272,-15.8155 C 844.83003,105.32144 829.66605,98.434128 813.24518,91.664573 797.35582,85.11416 782.70219,79.666332 768.20685,74.700582 754.23601,69.914528 741.97005,66.143532 734.30897,63.567528 722.58542,59.62551 720.19511,59.550815 713.12268,54.984559 712.60124,54.647888 712.09708,54.338475 711.60616,54.051352 710.645,53.489218 709.7722,53.097993 709.06317,52.911495 702.81233,51.26751 699.04948,51.790097 689.00819,49.524076 680.60713,47.628089 665.55158,43.682141 646.77003,39.288191 627.44684,34.767552 606.03783,30.204305 582.79689,26.230342 558.94604,22.152103 536.97192,19.351 516.90884,17.582982 497.29588,15.854651 482.1414,15.359953 473.7645,15.28714 c -9.1751,-0.07974 -15.91168,0.17464 -18.55817,0.253858 -5.99654,0.183101 -10.71032,5.190817 -10.5308,11.187468 0.17951,5.996649 5.1844,10.713439 11.18115,10.537521 2.31726,-0.06936 9.24464,-0.203617 17.86183,-0.244172 8.15499,-0.03838 22.62794,-0.148253 41.82341,0.749337 19.53174,0.913319 41.12158,2.734477 64.60782,5.858442 22.77421,3.029256 44.22004,6.87477 63.18232,10.958391 18.57297,3.999784 33.3814,7.940273 41.45252,10.511118 8.69835,2.77063 11.86367,5.046374 16.8132,6.89792 0.19963,0.126177 0.40404,0.252784 0.61351,0.380302 6.9767,4.247373 16.75493,2.113812 28.6467,4.359845 7.88069,1.488463 19.9135,4.437512 33.83735,8.739616 14.17552,4.37986 28.98826,9.736595 44.41119,16.168944 16.00366,6.6746 31.0787,13.84633 44.75871,20.83397 13.31392,6.80056 24.9696,13.26517 31.78858,17.25465 8.8397,5.17156 12.71993,9.08856 18.1375,12.14626 0.006,0.003 0.0127,0.006 0.0166,0.009 0.92286,0.51445 1.87689,1.01519 2.88451,1.50931 8.38169,4.10502 14.08712,1.62506 23.20086,3.63587 8.67316,1.90279 23.42302,6.1911 41.61217,12.77407 18.55485,6.71509 38.79714,15.11136 60.31254,25.19773 44.3637,20.7977 81.2196,42.70817 102.0119,55.02879 15.2008,9.00719 27.3695,16.65343 32.4017,19.82101 2.4083,1.51549 5.589,0.79202 7.1048,-1.61601 1.5156,-2.40801 0.7924,-5.58882 -1.6154,-7.10478 z"
           id="path5"
           inkscape:transform-center-x="-766.16313"
           inkscape:transform-center-y="37.529055"
           sodipodi:nodetypes="csssscccscssssscssssscscsssssccssssssccccsscscc" />
        <path
           style="display:inline;fill:#ffffff;fill-opacity:1;fill-rule:nonzero;stroke:#ffffff;stroke-width:5;stroke-linecap:round;stroke-linejoin:round;stroke-dasharray:none;stroke-opacity:1"
           d="m 42.227951,127.75493 c 4.349124,1.22651 13.498071,4.30318 25.639166,6.31905 12.316441,2.04501 31.843349,3.26258 54.610723,3.43399 23.36439,0.17593 47.24568,-0.96068 59.98971,-0.47945 11.2466,0.42468 17.41234,3.28197 24.77819,2.96414 a 6.1893784,0.75422252 0.60400899 0 0 3.17087,-0.35252 c 0.31842,-0.0845 0.63857,-0.17362 0.96071,-0.26795 8.00061,-2.34267 10.77076,-5.92561 22.21694,-10.30477 7.00251,-2.67906 18.26331,-6.52684 32.51185,-11.62881 19.12032,-6.8464 40.34537,-14.77255 64.41833,-24.592787 37.52861,-15.30931 63.73854,-27.732901 83.41799,-37.045613 16.35865,-7.741234 27.09405,-11.759591 34.84287,-15.831597 4.31538,-2.267722 7.88046,-4.555339 9.50616,-5.518351 A 9.9955223,9.9955252 33.439328 0 0 448.1028,17.250463 c -1.50526,0.891667 -5.25224,2.908576 -9.20633,5.344244 -7.2307,4.454007 -16.06937,11.365202 -31.72546,19.822263 -17.23993,9.312604 -46.30776,23.377626 -81.86142,37.45591 -23.44095,9.282002 -45.47912,16.895213 -64.15629,22.43489 -14.33749,4.25252 -25.50945,6.92815 -32.71947,8.19489 -11.7084,2.05707 -15.6844,0.0723 -23.38176,1.33594 -0.30993,0.051 -0.61586,0.10481 -0.91832,0.16145 l 3.17084,-0.35251 c -7.0963,-0.34786 -13.13552,2.41204 -24.04912,2.08716 -12.87421,-0.38326 -34.78786,-3.91735 -56.97943,-9.07304 C 105.98066,99.946499 87.305196,94.081021 77.031349,91.320012 66.487763,88.486508 57.732191,86.696699 54.096096,85.671287 A 21.862556,21.86256 33.439328 0 0 42.227951,127.75493 Z"
           id="path6"
           inkscape:transform-center-x="-201.51025"
           inkscape:transform-center-y="-27.494227" />
      </g>
    </symbol>
    <symbol
       id="wing-right">
      <path
         id="path7"
         style="display:inline;fill:none;fill-opacity:1;stroke:#ffffff;stroke-width:8;stroke-linecap:round;stroke-linejoin:round;stroke-dasharray:none;stroke-opacity:1"
         d="m 211.14972,125.82442 c 80.84558,-22.84776 167.02647,-58.990188 240.00115,-99.064976 99.12251,2.488785 130.4585,8.232129 257.39076,36.722427 34.81223,24.745405 84.02415,4.185182 201.15695,82.484109 46.11857,15.05264 105.63262,30.94779 258.54982,118.92278 -139.2505,5.73736 -233.44512,174.16768 -264.08344,324.99093 -85.867,-46.58985 -247.22936,-53.49138 -319.98968,19.1828 C 558.41808,506.65005 331.16469,469.60331 243.92758,490.26768 207.04644,437.10581 152.27587,392.62064 42.061695,430.58701 m 0,-323.80978 169.088025,19.04719"
         inkscape:transform-center-x="-561.91845"
         inkscape:transform-center-y="211.82849"
         sodipodi:nodetypes="ccccccccccc" />
      <path
         style="display:inline;fill:#ffffff;fill-opacity:1;fill-rule:nonzero;stroke:#ffffff;stroke-width:5;stroke-linecap:round;stroke-linejoin:round;stroke-dasharray:none;stroke-opacity:1"
         d="m 206.21315,131.63746 c 2.1006,3.23773 6.46525,10.19234 11.87708,19.36148 7.62723,12.92256 17.4132,29.16463 29.31445,54.09898 12.18887,25.5369 22.51363,52.20716 24.90704,62.72494 1.42063,6.24291 -0.17032,8.41848 1.04167,12.77693 0.0707,0.25458 0.14574,0.50371 0.22468,0.74832 0.51099,4.40358 1.90165,8.77841 2.20045,16.86266 0.26075,7.05418 0.12441,17.97505 -0.91845,31.86321 -1.24699,16.60598 -3.61975,35.2837 -7.21614,54.96025 -3.86859,21.16573 -8.41482,39.49516 -12.62069,54.28431 -1.15258,4.05287 -2.22934,7.66516 -3.19022,10.80823 -5.64705,18.47138 -10.89903,31.25109 -13.65477,37.74137 a 5.7324459,5.7324444 87.023821 0 0 10.55303,4.48076 c 2.89277,-6.81309 8.12699,-19.88841 14.05453,-38.83405 1.00438,-3.21019 2.11689,-6.90507 3.29837,-11.04524 4.31337,-15.11528 8.87446,-33.81206 12.84372,-55.36501 3.70949,-20.14252 6.20039,-38.946 7.84686,-56.007 1.39322,-14.43688 1.9552,-25.13339 2.45672,-32.67706 0.62265,-9.36532 2.05457,-14.05068 1.96302,-19.36298 a 8.5288668,3.4798734 56.84645 0 0 -0.51593,-2.66483 c -0.19443,-0.58694 -0.41933,-1.17504 -0.68498,-1.77239 -1.84546,-4.15018 -4.45217,-4.82058 -7.38667,-10.54429 -4.96028,-9.67507 -14.1197,-36.79512 -24.86034,-63.51617 -10.1029,-25.13436 -19.44854,-44.50916 -26.63224,-57.11338 -5.44066,-9.54599 -10.10228,-16.66049 -12.27103,-20.00331 a 7.5277391,7.5277371 87.023821 0 0 -12.63016,8.19427 z"
         id="path8"
         inkscape:transform-center-x="-204.86549"
         inkscape:transform-center-y="202.49798" />
      <path
         style="display:inline;fill:#ffffff;fill-opacity:1;fill-rule:nonzero;stroke:#ffffff;stroke-width:5;stroke-linecap:round;stroke-linejoin:round;stroke-dasharray:none;stroke-opacity:1"
         d="m 449.56543,44.681923 c 2.47352,3.846526 7.63242,12.024274 13.85978,22.684694 8.74106,14.963662 19.71477,34.176453 33.15561,62.989083 6.79967,14.57626 13.12057,29.25224 18.58377,42.61597 5.33618,13.05307 9.83545,24.81696 12.04856,31.49884 2.91715,8.80762 2.43699,12.06026 4.83202,18.34406 0.31344,0.82228 0.63653,1.60033 0.97051,2.35049 a 0.95659776,0.00990121 66.056005 0 0 0.35927,0.78699 c 2.34375,4.00084 5.27814,6.72639 9.41851,14.77019 2.99925,5.82685 7.63967,15.68158 13.22203,29.51087 6.37588,15.79507 13.26919,35.02132 19.68775,56.11136 6.45963,21.22494 11.45576,41.1178 14.79181,58.00629 3.10123,15.69988 4.41813,27.06422 4.59743,33.32711 0.21997,7.68244 -1.72612,9.40107 -1.6266,14.31056 0.023,1.13631 0.11644,2.18877 0.26082,3.21673 a 0.49363033,0.01352903 82.564737 0 0 0.0643,0.62733 c 0.89591,4.27123 2.84319,8.28205 3.92275,15.96913 0.88659,6.31299 1.73348,16.31469 1.78518,28.95626 0.0525,12.84007 -0.70997,26.87436 -2.41181,41.9609 -3.60199,31.93106 -10.43536,59.52152 -13.71259,72.30558 -1.85773,7.24677 -3.48689,12.7021 -4.11072,14.8602 a 5.3167382,5.3167368 78.604012 0 0 10.21525,2.95287 c 0.55696,-1.92675 2.25613,-8.02772 4.17661,-15.09858 3.52351,-12.97288 10.646,-40.92399 14.97781,-73.60221 2.0557,-15.50783 3.19974,-29.79936 3.68113,-43.16974 0.48036,-13.34336 0.22299,-23.32417 0.12649,-30.27399 -0.11328,-8.15796 0.73474,-12.77321 0.41353,-17.45273 l 0.0643,0.62732 c -0.006,-1.13083 -0.082,-2.28333 -0.25744,-3.49923 -0.75894,-5.26137 -2.95432,-6.65571 -4.81547,-14.40981 -1.49802,-6.24123 -3.68638,-18.01992 -7.22535,-33.74785 -3.906,-17.3591 -8.84022,-36.9431 -15.20567,-58.76033 -6.28838,-21.55288 -12.69604,-40.89329 -18.60806,-57.33205 -5.16817,-14.37048 -9.23533,-24.53187 -11.75126,-30.93287 -3.41673,-8.69281 -3.97332,-12.81623 -6.03283,-17.32774 l 0.35924,0.78697 c -0.27262,-0.77244 -0.57206,-1.55774 -0.90872,-2.3688 -2.57264,-6.1978 -5.14634,-8.23288 -9.07046,-16.64757 -3.12663,-6.7046 -7.62261,-17.72777 -13.07339,-31.19773 C 520.83656,154.85597 514.9098,140.14991 508.4007,125.05336 495.85303,95.951278 485.04416,74.742657 476.44913,59.81413 470.13112,48.840479 464.76342,40.48084 462.22852,36.538854 a 7.5277287,7.5277268 78.604012 0 0 -12.6632,8.143094 z"
         id="path9"
         inkscape:transform-center-x="-487.41313"
         inkscape:transform-center-y="219.45091" />
      <path
         style="display:inline;fill:#ffffff;fill-opacity:1;fill-rule:nonzero;stroke:#ffffff;stroke-width:5;stroke-linecap:round;stroke-linejoin:round;stroke-dasharray:none;stroke-opacity:1"
         d="m 454.23534,34.354768 c 3.11102,1.43648 8.4448,3.943846 18.99069,8.37836 4.89208,2.057083 11.43976,4.643365 21.0413,8.442694 13.57957,5.373424 32.85297,13.008103 53.2354,21.883961 20.27398,8.828673 39.73497,18.046549 57.47059,27.583817 17.4034,9.35863 30.37626,17.57105 37.43775,22.93576 8.0731,6.13322 8.79899,9.36638 14.3216,13.66613 0.62537,0.4869 1.24218,0.94384 1.85682,1.37919 4.39935,4.20955 9.3076,7.20166 16.71736,14.32713 12.76313,12.27345 40.36279,40.25094 64.68363,68.95048 21.23353,25.05635 36.99198,47.0931 45.46427,61.42831 6.88925,11.65669 7.39365,17.72269 12.36388,25.95345 2.30904,3.82381 4.55941,6.57513 7.14016,9.66178 l -0.25284,-0.46335 c 2.93207,4.02278 6.35918,8.54474 10.33449,15.54897 4.60524,8.11419 11.68588,21.87166 19.12343,38.29506 7.65113,16.895 15.46981,36.10017 23.12077,58.25121 8.0205,23.2209 14.92001,46.95412 21.13718,71.30244 6.08104,23.81507 10.72231,45.18733 13.44076,57.80646 2.96158,13.74777 5.15316,24.98338 6.00431,29.30152 a 5.4192548,5.4192534 55.165732 0 0 10.63388,-2.09604 c -0.81283,-4.12362 -3.16015,-15.8377 -6.03812,-29.46635 -2.67113,-12.64911 -7.4681,-34.26289 -13.6889,-58.2118 -6.38966,-24.5989 -13.43087,-48.46654 -21.53501,-72.06448 -7.751,-22.56974 -15.44332,-41.90169 -22.82502,-59.31461 -7.2057,-16.99771 -13.58282,-30.9451 -17.29186,-39.74703 -3.21883,-7.63858 -4.75025,-12.84094 -6.34138,-17.77316 a 0.37749298,0.02945221 65.848016 0 0 -0.25287,-0.4634 c -1.46715,-3.82558 -2.93581,-7.32289 -5.35376,-11.20888 -5.26194,-8.45658 -10.5643,-11.67397 -19.04936,-22.58165 -13.94175,-17.9224 -23.07784,-31.10932 -48.1006,-60.93229 -24.36528,-29.03941 -51.40805,-58.29632 -62.99224,-71.47453 -7.18588,-8.17468 -9.9313,-13.31025 -14.3668,-18.07117 a 5.7200888,1.3602575 27.428841 0 0 -1.229,-1.06106 c -0.79936,-0.59048 -1.63483,-1.16744 -2.52371,-1.73389 -6.15584,-3.92293 -9.45964,-3.52606 -18.58412,-8.42893 -7.75284,-4.16583 -21.60508,-12.48915 -38.85264,-21.987426 C 591.22755,82.322301 572.68243,72.767501 552.2236,62.815242 532.41951,53.181474 512.73393,44.129271 499.78905,38.214268 c -8.75831,-4.002021 -16.45863,-7.490481 -20.62436,-9.315797 -10.66683,-4.673866 -15.364,-6.709787 -18.61807,-8.212328 a 7.5277277,7.5277258 55.165732 0 0 -6.31137,13.668682 z"
         id="path12"
         inkscape:transform-center-x="-636.00006"
         inkscape:transform-center-y="201.24172" />
      <path
         style="display:inline;fill:#ffffff;fill-opacity:1;fill-rule:nonzero;stroke:#ffffff;stroke-width:5;stroke-linecap:round;stroke-linejoin:round;stroke-dasharray:none;stroke-opacity:1"
         d="m 1171.7212,261.13547 c -5.0467,-3.17656 -17.3487,-10.8758 -32.6315,-19.96152 -20.6889,-12.29959 -58.94,-33.62278 -103.6657,-53.97434 -22.0242,-10.0217 -42.09201,-18.23879 -60.94286,-25.40816 -18.17472,-6.91217 -33.09944,-12.00885 -41.41184,-15.24215 -10.4514,-4.06513 -11.0812,-4.57011 -17.91786,-8.67761 -0.98719,-0.59736 -1.95931,-1.13411 -2.92358,-1.63518 l 0.0166,0.009 c -5.55962,-2.87735 -10.9822,-3.99603 -20.31185,-8.41126 -11.14357,-5.2736 -21.78356,-10.54181 -32.9272,-15.8155 C 844.83003,105.32144 829.66605,98.434128 813.24518,91.664573 797.35582,85.11416 782.70219,79.666332 768.20685,74.700582 754.23601,69.914528 741.97005,66.143532 734.30897,63.567528 722.58542,59.62551 720.19511,59.550815 713.12268,54.984559 712.60124,54.647888 712.09708,54.338475 711.60616,54.051352 710.645,53.489218 709.7722,53.097993 709.06317,52.911495 702.81233,51.26751 699.04948,51.790097 689.00819,49.524076 680.60713,47.628089 665.55158,43.682141 646.77003,39.288191 627.44684,34.767552 606.03783,30.204305 582.79689,26.230342 558.94604,22.152103 536.97192,19.351 516.90884,17.582982 497.29588,15.854651 482.1414,15.359953 473.7645,15.28714 c -9.1751,-0.07974 -15.91168,0.17464 -18.55817,0.253858 -5.99654,0.183101 -10.71032,5.190817 -10.5308,11.187468 0.17951,5.996649 5.1844,10.713439 11.18115,10.537521 2.31726,-0.06936 9.24464,-0.203617 17.86183,-0.244172 8.15499,-0.03838 22.62794,-0.148253 41.82341,0.749337 19.53174,0.913319 41.12158,2.734477 64.60782,5.858442 22.77421,3.029256 44.22004,6.87477 63.18232,10.958391 18.57297,3.999784 33.3814,7.940273 41.45252,10.511118 8.69835,2.77063 11.86367,5.046374 16.8132,6.89792 0.19963,0.126177 0.40404,0.252784 0.61351,0.380302 6.9767,4.247373 16.75493,2.113812 28.6467,4.359845 7.88069,1.488463 19.9135,4.437512 33.83735,8.739616 14.17552,4.37986 28.98826,9.736595 44.41119,16.168944 16.00366,6.6746 31.0787,13.84633 44.75871,20.83397 13.31392,6.80056 24.9696,13.26517 31.78858,17.25465 8.8397,5.17156 12.71993,9.08856 18.1375,12.14626 0.006,0.003 0.0127,0.006 0.0166,0.009 0.92286,0.51445 1.87689,1.01519 2.88451,1.50931 8.38169,4.10502 14.08712,1.62506 23.20086,3.63587 8.67316,1.90279 23.42302,6.1911 41.61217,12.77407 18.55485,6.71509 38.79714,15.11136 60.31254,25.19773 44.3637,20.7977 81.2196,42.70817 102.0119,55.02879 15.2008,9.00719 27.3695,16.65343 32.4017,19.82101 2.4083,1.51549 5.589,0.79202 7.1048,-1.61601 1.5156,-2.40801 0.7924,-5.58882 -1.6154,-7.10478 z"
         id="path16"
         inkscape:transform-center-x="-766.16313"
         inkscape:transform-center-y="37.529055"
         sodipodi:nodetypes="csssscccscssssscssssscscsssssccssssssccccsscscc" />
      <path
         style="display:inline;fill:#ffffff;fill-opacity:1;fill-rule:nonzero;stroke:#ffffff;stroke-width:5;stroke-linecap:round;stroke-linejoin:round;stroke-dasharray:none;stroke-opacity:1"
         d="m 42.227951,127.75493 c 4.349124,1.22651 13.498071,4.30318 25.639166,6.31905 12.316441,2.04501 31.843349,3.26258 54.610723,3.43399 23.36439,0.17593 47.24568,-0.96068 59.98971,-0.47945 11.2466,0.42468 17.41234,3.28197 24.77819,2.96414 a 6.1893784,0.75422252 0.60400899 0 0 3.17087,-0.35252 c 0.31842,-0.0845 0.63857,-0.17362 0.96071,-0.26795 8.00061,-2.34267 10.77076,-5.92561 22.21694,-10.30477 7.00251,-2.67906 18.26331,-6.52684 32.51185,-11.62881 19.12032,-6.8464 40.34537,-14.77255 64.41833,-24.592787 37.52861,-15.30931 63.73854,-27.732901 83.41799,-37.045613 16.35865,-7.741234 27.09405,-11.759591 34.84287,-15.831597 4.31538,-2.267722 7.88046,-4.555339 9.50616,-5.518351 A 9.9955223,9.9955252 33.439328 0 0 448.1028,17.250463 c -1.50526,0.891667 -5.25224,2.908576 -9.20633,5.344244 -7.2307,4.454007 -16.06937,11.365202 -31.72546,19.822263 -17.23993,9.312604 -46.30776,23.377626 -81.86142,37.45591 -23.44095,9.282002 -45.47912,16.895213 -64.15629,22.43489 -14.33749,4.25252 -25.50945,6.92815 -32.71947,8.19489 -11.7084,2.05707 -15.6844,0.0723 -23.38176,1.33594 -0.30993,0.051 -0.61586,0.10481 -0.91832,0.16145 l 3.17084,-0.35251 c -7.0963,-0.34786 -13.13552,2.41204 -24.04912,2.08716 -12.87421,-0.38326 -34.78786,-3.91735 -56.97943,-9.07304 C 105.98066,99.946499 87.305196,94.081021 77.031349,91.320012 66.487763,88.486508 57.732191,86.696699 54.096096,85.671287 A 21.862556,21.86256 33.439328 0 0 42.227951,127.75493 Z"
         id="path18"
         inkscape:transform-center-x="-201.51025"
         inkscape:transform-center-y="-27.494227" />
    </symbol>
  </defs>
  <use
     xlink:href="#wing-left"
     id="use6"
     style="display:none" />
  <g
     id="dragon-wing"
     style="display:inline">
    <path
       id="path14"
       style="display:inline;fill:none;fill-opacity:1;stroke:#1a5200;stroke-width:8;stroke-linecap:round;stroke-linejoin:round;stroke-dasharray:none;stroke-opacity:1"
       d="m 211.14972,125.82442 c 80.84558,-22.84776 167.02647,-58.990188 240.00115,-99.064976 99.12251,2.488785 130.4585,8.232129 257.39076,36.722427 34.81223,24.745405 84.02415,4.185182 201.15695,82.484109 46.11857,15.05264 105.63262,30.94779 258.54982,118.92278 -139.2505,5.73736 -233.44512,174.16768 -264.08344,324.99093 -85.867,-46.58985 -247.22936,-53.49138 -319.98968,19.1828 C 558.41808,506.65005 331.16469,469.60331 243.92758,490.26768 207.04644,437.10581 152.27587,392.62064 42.061695,430.58701 m 0,-323.80978 169.088025,19.04719"
       inkscape:transform-center-x="-561.91845"
       inkscape:transform-center-y="211.82849"
       sodipodi:nodetypes="ccccccccccc" />
    <path
       style="display:inline;fill:#1a5200;fill-opacity:1;fill-rule:nonzero;stroke:#1a5200;stroke-width:5;stroke-linecap:round;stroke-linejoin:round;stroke-dasharray:none;stroke-opacity:1"
       d="m 206.21315,131.63746 c 2.1006,3.23773 6.46525,10.19234 11.87708,19.36148 7.62723,12.92256 17.4132,29.16463 29.31445,54.09898 12.18887,25.5369 22.51363,52.20716 24.90704,62.72494 1.42063,6.24291 -0.17032,8.41848 1.04167,12.77693 0.0707,0.25458 0.14574,0.50371 0.22468,0.74832 0.51099,4.40358 1.90165,8.77841 2.20045,16.86266 0.26075,7.05418 0.12441,17.97505 -0.91845,31.86321 -1.24699,16.60598 -3.61975,35.2837 -7.21614,54.96025 -3.86859,21.16573 -8.41482,39.49516 -12.62069,54.28431 -1.15258,4.05287 -2.22934,7.66516 -3.19022,10.80823 -5.64705,18.47138 -10.89903,31.25109 -13.65477,37.74137 a 5.7324459,5.7324444 87.023821 0 0 10.55303,4.48076 c 2.89277,-6.81309 8.12699,-19.88841 14.05453,-38.83405 1.00438,-3.21019 2.11689,-6.90507 3.29837,-11.04524 4.31337,-15.11528 8.87446,-33.81206 12.84372,-55.36501 3.70949,-20.14252 6.20039,-38.946 7.84686,-56.007 1.39322,-14.43688 1.9552,-25.13339 2.45672,-32.67706 0.62265,-9.36532 2.05457,-14.05068 1.96302,-19.36298 a 8.5288668,3.4798734 56.84645 0 0 -0.51593,-2.66483 c -0.19443,-0.58694 -0.41933,-1.17504 -0.68498,-1.77239 -1.84546,-4.15018 -4.45217,-4.82058 -7.38667,-10.54429 -4.96028,-9.67507 -14.1197,-36.79512 -24.86034,-63.51617 -10.1029,-25.13436 -19.44854,-44.50916 -26.63224,-57.11338 -5.44066,-9.54599 -10.10228,-16.66049 -12.27103,-20.00331 a 7.5277391,7.5277371 87.023821 0 0 -12.63016,8.19427 z"
       id="path10"
       inkscape:transform-center-x="-204.86549"
       inkscape:transform-center-y="202.49798" />
    <path
       style="display:inline;fill:#1a5200;fill-opacity:1;fill-rule:nonzero;stroke:#1a5200;stroke-width:5;stroke-linecap:round;stroke-linejoin:round;stroke-dasharray:none;stroke-opacity:1"
       d="m 449.56543,44.681923 c 2.47352,3.846526 7.63242,12.024274 13.85978,22.684694 8.74106,14.963662 19.71477,34.176453 33.15561,62.989083 6.79967,14.57626 13.12057,29.25224 18.58377,42.61597 5.33618,13.05307 9.83545,24.81696 12.04856,31.49884 2.91715,8.80762 2.43699,12.06026 4.83202,18.34406 0.31344,0.82228 0.63653,1.60033 0.97051,2.35049 a 0.95659776,0.00990121 66.056005 0 0 0.35927,0.78699 c 2.34375,4.00084 5.27814,6.72639 9.41851,14.77019 2.99925,5.82685 7.63967,15.68158 13.22203,29.51087 6.37588,15.79507 13.26919,35.02132 19.68775,56.11136 6.45963,21.22494 11.45576,41.1178 14.79181,58.00629 3.10123,15.69988 4.41813,27.06422 4.59743,33.32711 0.21997,7.68244 -1.72612,9.40107 -1.6266,14.31056 0.023,1.13631 0.11644,2.18877 0.26082,3.21673 a 0.49363033,0.01352903 82.564737 0 0 0.0643,0.62733 c 0.89591,4.27123 2.84319,8.28205 3.92275,15.96913 0.88659,6.31299 1.73348,16.31469 1.78518,28.95626 0.0525,12.84007 -0.70997,26.87436 -2.41181,41.9609 -3.60199,31.93106 -10.43536,59.52152 -13.71259,72.30558 -1.85773,7.24677 -3.48689,12.7021 -4.11072,14.8602 a 5.3167382,5.3167368 78.604012 0 0 10.21525,2.95287 c 0.55696,-1.92675 2.25613,-8.02772 4.17661,-15.09858 3.52351,-12.97288 10.646,-40.92399 14.97781,-73.60221 2.0557,-15.50783 3.19974,-29.79936 3.68113,-43.16974 0.48036,-13.34336 0.22299,-23.32417 0.12649,-30.27399 -0.11328,-8.15796 0.73474,-12.77321 0.41353,-17.45273 l 0.0643,0.62732 c -0.006,-1.13083 -0.082,-2.28333 -0.25744,-3.49923 -0.75894,-5.26137 -2.95432,-6.65571 -4.81547,-14.40981 -1.49802,-6.24123 -3.68638,-18.01992 -7.22535,-33.74785 -3.906,-17.3591 -8.84022,-36.9431 -15.20567,-58.76033 -6.28838,-21.55288 -12.69604,-40.89329 -18.60806,-57.33205 -5.16817,-14.37048 -9.23533,-24.53187 -11.75126,-30.93287 -3.41673,-8.69281 -3.97332,-12.81623 -6.03283,-17.32774 l 0.35924,0.78697 c -0.27262,-0.77244 -0.57206,-1.55774 -0.90872,-2.3688 -2.57264,-6.1978 -5.14634,-8.23288 -9.07046,-16.64757 -3.12663,-6.7046 -7.62261,-17.72777 -13.07339,-31.19773 C 520.83656,154.85597 514.9098,140.14991 508.4007,125.05336 495.85303,95.951278 485.04416,74.742657 476.44913,59.81413 470.13112,48.840479 464.76342,40.48084 462.22852,36.538854 a 7.5277287,7.5277268 78.604012 0 0 -12.6632,8.143094 z"
       id="path17"
       inkscape:transform-center-x="-487.41313"
       inkscape:transform-center-y="219.45091" />
    <path
       style="display:inline;fill:#1a5200;fill-opacity:1;fill-rule:nonzero;stroke:#1a5200;stroke-width:5;stroke-linecap:round;stroke-linejoin:round;stroke-dasharray:none;stroke-opacity:1"
       d="m 454.23534,34.354768 c 3.11102,1.43648 8.4448,3.943846 18.99069,8.37836 4.89208,2.057083 11.43976,4.643365 21.0413,8.442694 13.57957,5.373424 32.85297,13.008103 53.2354,21.883961 20.27398,8.828673 39.73497,18.046549 57.47059,27.583817 17.4034,9.35863 30.37626,17.57105 37.43775,22.93576 8.0731,6.13322 8.79899,9.36638 14.3216,13.66613 0.62537,0.4869 1.24218,0.94384 1.85682,1.37919 4.39935,4.20955 9.3076,7.20166 16.71736,14.32713 12.76313,12.27345 40.36279,40.25094 64.68363,68.95048 21.23353,25.05635 36.99198,47.0931 45.46427,61.42831 6.88925,11.65669 7.39365,17.72269 12.36388,25.95345 2.30904,3.82381 4.55941,6.57513 7.14016,9.66178 l -0.25284,-0.46335 c 2.93207,4.02278 6.35918,8.54474 10.33449,15.54897 4.60524,8.11419 11.68588,21.87166 19.12343,38.29506 7.65113,16.895 15.46981,36.10017 23.12077,58.25121 8.0205,23.2209 14.92001,46.95412 21.13718,71.30244 6.08104,23.81507 10.72231,45.18733 13.44076,57.80646 2.96158,13.74777 5.15316,24.98338 6.00431,29.30152 a 5.4192548,5.4192534 55.165732 0 0 10.63388,-2.09604 c -0.81283,-4.12362 -3.16015,-15.8377 -6.03812,-29.46635 -2.67113,-12.64911 -7.4681,-34.26289 -13.6889,-58.2118 -6.38966,-24.5989 -13.43087,-48.46654 -21.53501,-72.06448 -7.751,-22.56974 -15.44332,-41.90169 -22.82502,-59.31461 -7.2057,-16.99771 -13.58282,-30.9451 -17.29186,-39.74703 -3.21883,-7.63858 -4.75025,-12.84094 -6.34138,-17.77316 a 0.37749298,0.02945221 65.848016 0 0 -0.25287,-0.4634 c -1.46715,-3.82558 -2.93581,-7.32289 -5.35376,-11.20888 -5.26194,-8.45658 -10.5643,-11.67397 -19.04936,-22.58165 -13.94175,-17.9224 -23.07784,-31.10932 -48.1006,-60.93229 -24.36528,-29.03941 -51.40805,-58.29632 -62.99224,-71.47453 -7.18588,-8.17468 -9.9313,-13.31025 -14.3668,-18.07117 a 5.7200888,1.3602575 27.428841 0 0 -1.229,-1.06106 c -0.79936,-0.59048 -1.63483,-1.16744 -2.52371,-1.73389 -6.15584,-3.92293 -9.45964,-3.52606 -18.58412,-8.42893 -7.75284,-4.16583 -21.60508,-12.48915 -38.85264,-21.987426 C 591.22755,82.322301 572.68243,72.767501 552.2236,62.815242 532.41951,53.181474 512.73393,44.129271 499.78905,38.214268 c -8.75831,-4.002021 -16.45863,-7.490481 -20.62436,-9.315797 -10.66683,-4.673866 -15.364,-6.709787 -18.61807,-8.212328 a 7.5277277,7.5277258 55.165732 0 0 -6.31137,13.668682 z"
       id="path13"
       inkscape:transform-center-x="-636.00006"
       inkscape:transform-center-y="201.24172" />
    <path
       style="display:inline;fill:#1a5200;fill-opacity:1;fill-rule:nonzero;stroke:#1a5200;stroke-width:5;stroke-linecap:round;stroke-linejoin:round;stroke-dasharray:none;stroke-opacity:1"
       d="m 1171.7212,261.13547 c -5.0467,-3.17656 -17.3487,-10.8758 -32.6315,-19.96152 -20.6889,-12.29959 -58.94,-33.62278 -103.6657,-53.97434 -22.0242,-10.0217 -42.09201,-18.23879 -60.94286,-25.40816 -18.17472,-6.91217 -33.09944,-12.00885 -41.41184,-15.24215 -10.4514,-4.06513 -11.0812,-4.57011 -17.91786,-8.67761 -0.98719,-0.59736 -1.95931,-1.13411 -2.92358,-1.63518 l 0.0166,0.009 c -5.55962,-2.87735 -10.9822,-3.99603 -20.31185,-8.41126 -11.14357,-5.2736 -21.78356,-10.54181 -32.9272,-15.8155 C 844.83003,105.32144 829.66605,98.434128 813.24518,91.664573 797.35582,85.11416 782.70219,79.666332 768.20685,74.700582 754.23601,69.914528 741.97005,66.143532 734.30897,63.567528 722.58542,59.62551 720.19511,59.550815 713.12268,54.984559 712.60124,54.647888 712.09708,54.338475 711.60616,54.051352 710.645,53.489218 709.7722,53.097993 709.06317,52.911495 702.81233,51.26751 699.04948,51.790097 689.00819,49.524076 680.60713,47.628089 665.55158,43.682141 646.77003,39.288191 627.44684,34.767552 606.03783,30.204305 582.79689,26.230342 558.94604,22.152103 536.97192,19.351 516.90884,17.582982 497.29588,15.854651 482.1414,15.359953 473.7645,15.28714 c -9.1751,-0.07974 -15.91168,0.17464 -18.55817,0.253858 -5.99654,0.183101 -10.71032,5.190817 -10.5308,11.187468 0.17951,5.996649 5.1844,10.713439 11.18115,10.537521 2.31726,-0.06936 9.24464,-0.203617 17.86183,-0.244172 8.15499,-0.03838 22.62794,-0.148253 41.82341,0.749337 19.53174,0.913319 41.12158,2.734477 64.60782,5.858442 22.77421,3.029256 44.22004,6.87477 63.18232,10.958391 18.57297,3.999784 33.3814,7.940273 41.45252,10.511118 8.69835,2.77063 11.86367,5.046374 16.8132,6.89792 0.19963,0.126177 0.40404,0.252784 0.61351,0.380302 6.9767,4.247373 16.75493,2.113812 28.6467,4.359845 7.88069,1.488463 19.9135,4.437512 33.83735,8.739616 14.17552,4.37986 28.98826,9.736595 44.41119,16.168944 16.00366,6.6746 31.0787,13.84633 44.75871,20.83397 13.31392,6.80056 24.9696,13.26517 31.78858,17.25465 8.8397,5.17156 12.71993,9.08856 18.1375,12.14626 0.006,0.003 0.0127,0.006 0.0166,0.009 0.92286,0.51445 1.87689,1.01519 2.88451,1.50931 8.38169,4.10502 14.08712,1.62506 23.20086,3.63587 8.67316,1.90279 23.42302,6.1911 41.61217,12.77407 18.55485,6.71509 38.79714,15.11136 60.31254,25.19773 44.3637,20.7977 81.2196,42.70817 102.0119,55.02879 15.2008,9.00719 27.3695,16.65343 32.4017,19.82101 2.4083,1.51549 5.589,0.79202 7.1048,-1.61601 1.5156,-2.40801 0.7924,-5.58882 -1.6154,-7.10478 z"
       id="path15"
       inkscape:transform-center-x="-766.16313"
       inkscape:transform-center-y="37.529055"
       sodipodi:nodetypes="csssscccscssssscssssscscsssssccssssssccccsscscc" />
    <path
       style="display:inline;fill:#1a5200;fill-opacity:1;fill-rule:nonzero;stroke:#1a5200;stroke-width:5;stroke-linecap:round;stroke-linejoin:round;stroke-dasharray:none;stroke-opacity:1"
       d="m 42.227951,127.75493 c 4.349124,1.22651 13.498071,4.30318 25.639166,6.31905 12.316441,2.04501 31.843349,3.26258 54.610723,3.43399 23.36439,0.17593 47.24568,-0.96068 59.98971,-0.47945 11.2466,0.42468 17.41234,3.28197 24.77819,2.96414 a 6.1893784,0.75422252 0.60400899 0 0 3.17087,-0.35252 c 0.31842,-0.0845 0.63857,-0.17362 0.96071,-0.26795 8.00061,-2.34267 10.77076,-5.92561 22.21694,-10.30477 7.00251,-2.67906 18.26331,-6.52684 32.51185,-11.62881 19.12032,-6.8464 40.34537,-14.77255 64.41833,-24.592787 37.52861,-15.30931 63.73854,-27.732901 83.41799,-37.045613 16.35865,-7.741234 27.09405,-11.759591 34.84287,-15.831597 4.31538,-2.267722 7.88046,-4.555339 9.50616,-5.518351 A 9.9955223,9.9955252 33.439328 0 0 448.1028,17.250463 c -1.50526,0.891667 -5.25224,2.908576 -9.20633,5.344244 -7.2307,4.454007 -16.06937,11.365202 -31.72546,19.822263 -17.23993,9.312604 -46.30776,23.377626 -81.86142,37.45591 -23.44095,9.282002 -45.47912,16.895213 -64.15629,22.43489 -14.33749,4.25252 -25.50945,6.92815 -32.71947,8.19489 -11.7084,2.05707 -15.6844,0.0723 -23.38176,1.33594 -0.30993,0.051 -0.61586,0.10481 -0.91832,0.16145 l 3.17084,-0.35251 c -7.0963,-0.34786 -13.13552,2.41204 -24.04912,2.08716 -12.87421,-0.38326 -34.78786,-3.91735 -56.97943,-9.07304 C 105.98066,99.946499 87.305196,94.081021 77.031349,91.320012 66.487763,88.486508 57.732191,86.696699 54.096096,85.671287 A 21.862556,21.86256 33.439328 0 0 42.227951,127.75493 Z"
       id="path11"
       inkscape:transform-center-x="-201.51025"
       inkscape:transform-center-y="-27.494227" />
  </g>
  <use
     xlink:href="#wing-right"
     id="use18"
     style="display:none" />
</svg>
